<svg xmlns="http://www.w3.org/2000/svg" viewBox="0 0 794.26 794.33"><defs><style>.cls-1{fill:#fff;}</style></defs><title>Risorsa 2logo tondo bianco</title><g id="Livello_2" data-name="Livello 2"><g id="Livello_1-2" data-name="Livello 1"><path class="cls-1" d="M397.13,24.39a372.58,372.58,0,0,1,263.54,636.3,372.87,372.87,0,0,1-607-118.48A372.64,372.64,0,0,1,397.13,24.39m0-24.39A397,397,0,0,0,116.31,677.94,397.42,397.42,0,0,0,763.06,551.7,397,397,0,0,0,397.13,0"/><path class="cls-1" d="M300.88,271.92l165.88-66.8s13.92-7.4,20.77-2.94,2.62,18,2.62,18L448.57,396.36s-4.75,19.55-10.3,20.05c-7.52.66-13.74-8.34-13.74-8.34L389,361.9a258.89,258.89,0,0,0-15.77,20.63,60.35,60.35,0,0,0-10.15,35.8c.33,14.14,4.35,33,14,46.33s81.77,112,81.77,112l-46.7,37.23S337.64,513.3,325.38,493c-7.44-12.37-13-28.68-14.91-36.52-3.24-12.91-5.45-19.83-5.39-39.21,0-17.14,1.67-33.46,12.86-55.45,8.64-17,25.15-38.27,25.15-38.27l-48.71-29.3s-9.69-4.37-9.5-11.45c.12-5.8,16-10.83,16-10.83"/><path class="cls-1" d="M397.22,647.3c-8.33,0-16.54-.4-24.58-1.19l1-10.4c7.73.76,15.63,1.13,23.49,1.13l.17,9v1.44Zm24.65-1.21-1-10.41a234.63,234.63,0,0,0,23.27-3.44l2,10.27c-8,1.59-16.14,2.79-24.28,3.58m-73.51-3.55c-8-1.57-16-3.58-23.82-5.95l3-10c7.49,2.28,15.17,4.19,22.81,5.71Zm121.61-6-3-10c7.45-2.26,14.89-4.94,22.14-7.94l4,9.66c-7.56,3.14-15.33,5.92-23.11,8.29m-168.54-8.2-1.65-.7c-7-3-13.91-6.24-20.56-9.81l4.94-9.21c6.37,3.4,13,6.57,19.69,9.4l1.56.65Zm213.83-10.61-4.94-9.21c6.9-3.7,13.69-7.77,20.16-12.11l5.82,8.68a244.1,244.1,0,0,1-21,12.64M258.18,605.2c-6.78-4.53-13.41-9.47-19.72-14.65l6.65-8.07c6,5,12.39,9.68,18.87,14ZM556,590.41l-6.65-8.07c6-4.91,11.78-10.2,17.3-15.7l7.51,7.27L574,574c-5.75,5.75-11.82,11.26-18,16.39M220.29,574.06l0,0c-5.79-5.77-11.32-11.87-16.47-18.11l8.08-6.65c4.93,6,10.24,11.84,15.77,17.38Zm370.34-18.34-8.08-6.65c5-6,9.68-12.36,14-18.87l8.69,5.79c-4.54,6.81-9.46,13.44-14.63,19.73m-401.51-19.5c-4.53-6.78-8.78-13.85-12.63-21.06l9.22-4.92c3.69,6.88,7.77,13.68,12.1,20.16Zm428.74-21.29L608.65,510c3.37-6.32,6.52-12.91,9.33-19.55l.73-1.72,9.65,4-.75,1.82c-2.94,6.94-6.22,13.78-9.75,20.38M166,493c-3.15-7.56-5.93-15.32-8.3-23.12l10-3c2.27,7.45,4.93,14.9,7.93,22.13Zm470.63-23.35-10-3c2.26-7.49,4.17-15.18,5.68-22.83l10.25,2a244.18,244.18,0,0,1-5.92,23.81M151.76,446a245.45,245.45,0,0,1-3.58-24.29l10.4-1c.77,7.8,1.92,15.63,3.43,23.27ZM646.1,421.5l-10.4-1c.73-7.69,1.1-15.54,1.1-23.31l9-.16h1.42q0,12.4-1.15,24.46M147,397.23v0c0-8.17.39-16.4,1.17-24.47l10.4,1c-.74,7.73-1.13,15.62-1.13,23.46Zm488.65-23.74a233.87,233.87,0,0,0-3.44-23.27l10.26-2c1.58,8,2.79,16.17,3.58,24.29ZM162,350.45l-10.27-2c1.58-8,3.58-16,6-23.83l10,3c-2.26,7.5-4.17,15.17-5.68,22.82m464.51-23c-2.26-7.45-4.94-14.89-7.94-22.13l9.66-4c3.14,7.56,5.92,15.33,8.29,23.11ZM175.6,305.5l-9.65-4,.7-1.69c3-7,6.25-13.86,9.8-20.49l9.21,4.93c-3.39,6.34-6.54,12.95-9.38,19.64ZM608.5,284c-3.67-6.87-7.76-13.65-12.12-20.15l8.68-5.83c4.56,6.79,8.82,13.87,12.66,21ZM197.77,264.07l-8.69-5.82c4.54-6.78,9.47-13.4,14.65-19.71l8.08,6.66c-5,6-9.7,12.39-14,18.87M582.34,245c-4.92-6-10.2-11.78-15.7-17.3l7.27-7.51.13.13c5.74,5.75,11.24,11.82,16.36,18Zm-354.9-17.06-7.22-7.56.08-.06c5.75-5.77,11.83-11.3,18.08-16.45l6.65,8.07c-6,4.93-11.83,10.23-17.34,15.76Zm321.63-16.16c-6-5-12.38-9.69-18.87-14l5.81-8.68c6.77,4.53,13.41,9.45,19.71,14.63ZM263.89,197.89l-5.83-8.68c6.78-4.54,13.86-8.81,21.05-12.66l4.93,9.21c-6.88,3.7-13.67,7.78-20.15,12.13M510,185.66c-6.34-3.39-12.94-6.54-19.59-9.36l-1.67-.71,4-9.66,1.74.74c6.94,2.93,13.82,6.21,20.44,9.77Zm-204.72-10-4-9.64c7.55-3.14,15.32-5.92,23.1-8.3l3,10c-7.45,2.27-14.9,4.94-22.13,7.94m161.31-8c-7.46-2.24-15.14-4.16-22.81-5.69l2-10.25c8,1.58,16,3.58,23.81,5.93ZM350.26,162l-2.05-10.26c8-1.58,16.16-2.78,24.3-3.57l1,10.41A234.63,234.63,0,0,0,350.26,162m70.27-3.45c-7.69-.73-15.55-1.12-23.38-1.12L397,147h.13c8.16,0,16.36.38,24.38,1.16Z"/><polygon class="cls-1" points="124.12 526.47 133.12 545.06 127.96 560.01 109.35 569.06 94.32 563.87 80.83 536.06 86.05 521.06 98.44 515.05 106.87 532.42 100.63 535.44 99.56 538.39 104.05 547.65 107.07 548.69 113.39 545.64 114.35 542.64 105.39 524.15 110.64 509.13 128.99 500.24 143.97 505.42 157.46 533.24 152.27 548.22 140.15 554.09 131.72 536.74 137.63 533.88 138.68 530.84 134.2 521.58 131.27 520.58 125.21 523.51 124.12 526.47"/><polygon class="cls-1" points="74.63 464.33 75.13 466.54 59.68 470.01 53.3 441.65 68.76 438.17 70.14 444.35 110.53 448.47 109.74 444.94 125.21 441.47 133.38 477.89 117.93 481.36 117.26 478.41 82.5 499.34 83.73 504.84 68.28 508.32 62.08 480.7 77.53 477.22 78.05 479.53 99.19 466.75 74.63 464.33"/><path class="cls-1" d="M63.05,424.08,51.86,412.79l.21-30.92,11.35-11.13,47.72.34,11.11,11.29L122,413.29,110.76,424.4Zm7.07-34-2.29,2.17-.06,10.28L70,404.82l34,.25,2.21-2.26.07-10.28-2.18-2.21Z"/><polygon class="cls-1" points="74.02 333.05 111.69 341.01 114.31 328.67 110.19 327.79 113.45 312.36 133.06 316.52 122.32 367.3 106.82 364.02 107.7 359.89 70.03 351.92 69.16 356.04 53.66 352.76 59.4 325.64 74.89 328.92 74.02 333.05"/><polygon class="cls-1" points="111.25 239.61 104.84 254 101.07 252.32 99.35 256.15 134.53 271.84 136.24 267.99 150.71 274.44 139.39 299.84 124.92 293.39 126.67 289.45 91.49 273.78 89.75 277.71 93.52 279.39 87.11 293.77 68.87 285.65 93.02 231.46 111.25 239.61"/><path class="cls-1" d="M134.69,172.34,147.2,182,145,184.85l39.87,11.41,2.59-3.34L200,202.63,183.48,224,171,214.24l1.4-1.81-3.08-1.1L157.87,226l1.78,2.79,1.41-1.81,12.51,9.71L157.1,258l-12.53-9.7,2.59-3.34-21-35.78-1.86,2.4-12.52-9.7ZM150.16,214l5.47-7-11.53-3.29Z"/><polygon class="cls-1" points="209.26 160.64 193.22 173.63 177.47 171.99 164.46 155.91 166.07 140.1 190.1 120.64 205.89 122.35 214.56 133.04 199.55 145.19 195.2 139.8 192.08 139.42 184.1 145.9 183.75 149.07 188.17 154.55 191.31 154.79 207.28 141.87 223.1 143.59 235.93 159.43 234.28 175.19 210.24 194.66 194.49 192.99 186 182.53 200.99 170.38 205.13 175.49 208.33 175.82 216.31 169.35 216.63 166.28 212.4 161.03 209.26 160.64"/><polygon class="cls-1" points="275.63 94.16 261.55 101.25 259.7 97.56 255.93 99.47 273.27 133.85 277.03 131.95 284.16 146.09 259.34 158.62 252.22 144.47 256.05 142.53 238.71 108.16 234.88 110.09 236.73 113.77 222.67 120.86 213.67 103.03 266.64 76.32 275.63 94.16"/><polygon class="cls-1" points="353.02 113.28 344.77 126.84 314.72 134.12 301.19 125.89 291.04 83.95 286.96 84.94 283.23 69.54 310.17 63.02 313.9 78.42 309.8 79.41 318.35 114.7 321.07 116.29 331.06 113.88 332.67 111.24 324.14 75.93 320.04 76.92 316.32 61.54 343.26 55.02 346.98 70.4 342.88 71.39 353.02 113.28"/><path class="cls-1" d="M362.34,52.13,405.81,52l11.25,11.26.16,47.7-11.17,11.23-43.47.14-.05-15.84,4.21,0L366.61,68h-4.22ZM386,106.39l9.62,0,2.24-2.19-.1-34.06-2.29-2.25-9.6,0Z"/><polygon class="cls-1" points="447.29 110.61 459.37 112.91 459.89 110.19 475.46 113.16 471.96 131.45 421.23 121.75 424.2 106.19 428.34 106.99 435.57 69.17 431.43 68.37 434.41 52.82 485.14 62.51 481.65 80.72 466.1 77.76 466.61 75.1 454.52 72.78 452.4 83.88 455.21 84.41 455.72 81.77 471.2 84.72 467.19 105.67 451.71 102.71 452.25 99.98 449.42 99.44 447.29 110.61"/><polygon class="cls-1" points="514.12 148.15 509.5 111.78 503.22 126.04 507.07 127.75 500.7 142.24 475.33 131.07 481.71 116.59 485.56 118.28 501.06 83.03 497.21 81.34 503.57 66.85 524.48 76.03 529.18 113.25 535.76 98.3 531.92 96.6 538.27 82.1 563.66 93.27 557.29 107.75 553.42 106.06 537.93 141.3 541.79 143 535.4 157.5 514.12 148.15"/><polygon class="cls-1" points="615.58 154.67 603.02 145.15 605.5 141.87 602.16 139.31 578.89 170 582.24 172.54 572.67 185.17 550.51 168.37 560.09 155.73 563.51 158.34 586.78 127.66 583.35 125.06 580.87 128.36 568.31 118.83 580.38 102.92 627.63 138.76 615.58 154.67"/><polygon class="cls-1" points="605.55 217.42 586.6 197.21 598.15 186.37 601.04 189.45 629.12 163.11 626.25 160.04 637.8 149.2 656.75 169.43 645.2 180.26 642.32 177.19 614.23 203.52 617.12 206.58 605.55 217.42"/><polygon class="cls-1" points="659.12 252.99 662.48 259.26 666.92 256.85 670.34 263.2 660.06 268.73 648.41 247.1 654.25 243.94 655.59 246.44 677.3 234.74 675.99 232.3 681.92 229.1 688 240.42 682 243.65 680.75 241.33 659.12 252.99"/><path class="cls-1" d="M665.72,281.59l-3.88-9.21,6-2.53.54,1.26,24.85-4.3-.63-1.51,6.26-2.69L703.29,273l-6.21,2.61-.49-1.17-20.21,15.32.52,1.26-6.12,2.58-3.89-9.25,6.12-2.58.65,1.53,1.7-1.3-2.07-4.9-2.12.29.66,1.61Zm13.83-2.71,4.85-3.62-6,.87Z"/><polygon class="cls-1" points="688.52 311.01 690.32 318.17 685.84 319.29 687.95 327.7 696.85 325.46 693.82 313.37 696.33 309.05 711.22 305.32 715.31 307.89 719.25 323.61 716.45 328.33 709.36 330.1 707.51 322.71 711.75 321.64 709.7 313.37 701.38 315.46 704.42 327.6 701.89 331.83 686.82 335.6 682.46 332.96 678.65 317.7 681.57 312.75 688.52 311.01"/><polygon class="cls-1" points="687.02 358.92 685.14 346.4 691.71 345.42 692.08 347.9 716.43 344.25 716.07 341.87 711.56 342.55 710.66 336.5 721.7 334.85 725.32 359.15 714.28 360.8 713.38 354.75 717.9 354.07 717.55 351.71 693.2 355.33 693.58 357.94 687.02 358.92"/><polygon class="cls-1" points="689.17 386.87 688.6 375.73 692.53 371.46 719.79 370.07 719.69 368.01 726.23 367.66 726.75 377.87 720.11 378.2 720.02 376.47 695.5 377.74 695.82 384.23 720.36 382.96 720.27 381.12 726.9 380.78 727.42 390.99 720.79 391.33 720.7 389.35 693.51 390.76 689.17 386.87"/><path class="cls-1" d="M688.73,418.44l1-20.93,6.58.26-.12,2.82,24.63,1.15.15-2.82,6.81.3-1,21.07-3.87,4-30.56-1.42Zm31.41-2.22.32-7.05L695.92,408l-.32,7.06Z"/><polygon class="cls-1" points="684.63 451.57 688.24 427.08 694.81 428.04 694.42 430.71 718.82 434.31 719.26 431.46 725.9 432.45 722.26 457.12 711.41 455.52 712.48 448.31 716.58 448.92 717.64 441.65 708.99 440.37 708.15 446.01 701.53 445.03 702.37 439.4 693.33 438.06 692.25 445.42 697.23 446.16 696.17 453.29 684.63 451.57"/><polygon class="cls-1" points="680.81 467.81 683.88 455.7 690.55 457.39 689.85 460.14 713.63 466.18 714.35 463.34 720.79 464.97 718.06 475.66 700.97 477.01 710.41 479.39 711.08 476.8 717.38 478.4 714.17 490.98 707.73 489.35 708.4 486.76 684.62 480.71 683.96 483.32 677.3 481.63 679.82 471.68 700.17 470.34 687.95 467.25 687.38 469.47 680.81 467.81"/><polygon class="cls-1" points="669.86 502.7 674.22 490.81 680.45 493.1 679.6 495.42 702.71 503.91 703.54 501.65 699.25 500.07 701.36 494.33 711.84 498.17 703.39 521.25 692.9 517.42 695.01 511.66 699.3 513.24 700.12 510.98 677 502.5 676.1 504.98 669.86 502.7"/><polygon class="cls-1" points="676.29 517.16 673.08 523.82 668.93 521.83 665.17 529.62 673.45 533.6 678.85 522.37 683.55 520.64 697.38 527.3 698.89 531.88 691.86 546.48 686.68 548.32 680.12 545.17 683.42 538.3 687.36 540.18 691.05 532.51 683.33 528.8 677.92 540.08 673.26 541.72 659.25 534.99 657.6 530.17 664.42 515.99 669.84 514.06 676.29 517.16"/><polygon class="cls-1" points="680.39 551.98 688.05 556.4 683.26 564.72 675.65 560.35 673.01 550.62 679.14 554.14 680.39 551.98"/><polygon class="cls-1" points="625.78 579.13 632.59 570.29 638.34 569.62 659.99 586.25 661.25 584.62 666.43 588.61 660.21 596.71 654.94 592.66 656 591.29 636.52 576.3 632.56 581.44 652.04 596.42 653.15 594.97 658.42 599.02 652.19 607.12 646.92 603.06 648.14 601.5 626.57 584.91 625.78 579.13"/><polygon class="cls-1" points="611.01 596.36 619.56 587.27 624.56 591.99 622.63 594.04 640.5 610.86 642.49 608.73 647.33 613.27 639.77 621.31 624.17 614.18 631.27 620.86 633.11 618.9 637.85 623.37 628.93 632.81 624.09 628.28 625.94 626.32 608.07 609.5 606.24 611.46 601.23 606.75 608.26 599.26 626.72 607.97 617.53 599.32 615.95 600.99 611.01 596.36"/><polygon class="cls-1" points="593.13 622.97 588.68 618.04 598.27 609.4 602.71 614.34 600.65 616.2 617.17 634.53 619.2 632.69 623.71 637.71 614.17 646.32 609.6 641.23 611.57 639.43 601.25 627.97 595.14 621.18 593.13 622.97"/><path class="cls-1" d="M583,623l4.28.56,19.12,24.8-.63,5.11L593.36,663l-5-.61L569.45,637.9l.61-4.94Zm9.24,32.29,6.37-4.92-15-19.49-6.38,4.91Z"/><polygon class="cls-1" points="552.96 644.48 563.54 637.87 567.17 643.72 564.78 645.19 577.76 666.01 580.25 664.46 583.76 670.09 574.42 675.93 561.13 665.07 566.3 673.33 568.58 671.92 572.02 677.43 561 684.3 557.48 678.66 559.76 677.25 546.76 656.44 544.49 657.87 540.85 652.02 549.55 646.6 565.18 659.71 558.5 649 556.54 650.23 552.96 644.48"/><path class="cls-1" d="M502.74,669.87l19.33-8.08,2.59,6.06L522,669l9.51,22.77,2.6-1.11,2.63,6.32-19.46,8.13L512,703.27,500.25,675Zm15.43,27.43,6.51-2.72-9.47-22.67-6.52,2.71Z"/><polygon class="cls-1" points="470.97 680.3 494.67 673.13 496.6 679.46 494.02 680.25 501.17 703.87 503.92 703.04 505.87 709.48 481.99 716.71 478.81 706.22 485.8 704.09 487 708.06 494.02 705.92 491.49 697.55 486.03 699.2 484.1 692.8 489.56 691.15 486.9 682.41 479.79 684.57 481.24 689.4 474.35 691.48 470.97 680.3"/><polygon class="cls-1" points="458.06 689.91 451.1 691.28 452.06 696.22 444.99 697.61 442.73 686.16 466.85 681.4 468.14 687.91 465.36 688.47 470.14 712.67 472.86 712.13 474.17 718.74 461.55 721.22 460.22 714.52 462.81 714.01 458.06 689.91"/><path class="cls-1" d="M407.5,689.24l13.07-.51.26,6.67-2.62.12,1,24.47,2.73-.11.26,6.85-19.62.79-3.81-3.58-.57-14.29,3.7-4.12,9-.35-.42-9.35-2.73.1Zm-.94,31.33,5-.2-.32-8.32-5,.19Z"/><path class="cls-1" d="M390.28,689.55l2.89,3.23L391.45,724l-3.81,3.47L372,726.66l-3.38-3.73,1.7-30.93,3.67-3.34Zm-14.07,30.5,8,.43,1.36-24.59-8-.43Z"/><polygon class="cls-1" points="354.69 693.14 347.67 692.08 346.9 697.06 339.78 695.96 341.54 684.43 365.84 688.11 364.83 694.67 362.04 694.26 358.33 718.65 361.07 719.06 360.07 725.73 347.37 723.79 348.39 717.04 350.99 717.43 354.69 693.14"/><polygon class="cls-1" points="323.15 686.95 324.68 680.48 337.24 683.42 335.72 689.89 333.02 689.25 327.37 713.26 330.03 713.9 328.49 720.46 315.98 717.51 317.54 710.87 320.15 711.49 323.67 696.45 325.77 687.56 323.15 686.95"/><polygon class="cls-1" points="302.51 673.87 314.57 677.75 312.55 684.06 310.16 683.3 302.63 706.74 304.92 707.47 306.31 703.14 312.14 705.01 308.72 715.63 285.33 708.11 288.74 697.48 294.56 699.35 293.17 703.71 295.45 704.44 302.99 681 300.49 680.19 302.51 673.87"/><polygon class="cls-1" points="270.08 660.74 292.79 670.63 290.14 676.72 287.67 675.64 277.83 698.25 280.47 699.42 277.78 705.58 254.89 695.63 259.28 685.56 265.96 688.47 264.31 692.27 271.05 695.2 274.54 687.17 269.32 684.91 271.98 678.77 277.2 681.05 280.86 672.67 274.03 669.71 272.03 674.32 265.42 671.45 270.08 660.74"/><polygon class="cls-1" points="245.98 662.88 239.47 659.26 244.27 650.63 248.95 649.29 263.24 657.22 264.61 662.1 249.37 689.55 245.12 690.68 230.47 682.55 229.12 677.9 232.68 671.48 239.13 675.08 237.25 678.5 244.78 682.68 256.72 661.2 249.23 657.04 245.98 662.88"/><polygon class="cls-1" points="232.03 638.35 242.28 645.47 238.37 651.12 236.05 649.51 222.06 669.67 224.47 671.33 220.69 676.78 211.63 670.52 216.37 654.01 210.82 662.03 213.01 663.56 209.31 668.9 198.64 661.49 202.41 656.04 204.62 657.56 218.6 637.41 216.39 635.88 220.3 630.22 228.74 636.08 222.87 655.6 230.07 645.24 228.17 643.93 232.03 638.35"/><polygon class="cls-1" points="203.03 624.61 207.25 619.48 217.21 627.67 213 632.8 210.85 631.04 195.18 650.09 197.29 651.82 193.01 657.02 183.08 648.86 187.42 643.59 189.49 645.29 199.3 633.36 205.1 626.31 203.03 624.61"/><polygon class="cls-1" points="183.04 615.32 177.69 610.18 184.53 603.05 189.4 602.94 201.18 614.26 201.28 619.32 179.52 641.96 175.13 641.99 163.04 630.38 162.91 625.55 168 620.26 173.33 625.38 170.63 628.2 176.84 634.16 193.86 616.44 187.68 610.49 183.04 615.32"/><path class="cls-1" d="M182,595.24l-.33,4.3L157.92,620l-5.15-.35-10.21-11.85.33-5,23.46-20.24,4.94.32Zm-31.73,11,5.27,6.09,18.62-16.08-5.25-6.09Z"/></g></g></svg>