<svg xmlns="http://www.w3.org/2000/svg" viewBox="0 0 1193.46 160.36"><defs><style>.cls-1{fill:#fff;}</style></defs><title>Risorsa 1gift card </title><g id="Livello_2" data-name="Livello 2"><g id="Livello_1-2" data-name="Livello 1"><path class="cls-1" d="M79.87,4.93a74.71,74.71,0,1,1-29.18,5.89A74.77,74.77,0,0,1,79.87,4.93m0-4.91A79.88,79.88,0,1,0,111,153.49,79.82,79.82,0,0,0,136.34,23.42,79.59,79.59,0,0,0,79.87,0"/><path class="cls-1" d="M60.51,54.71,93.87,41.28s2.81-1.49,4.18-.59.53,3.62.53,3.62L90.22,79.74s-1,3.93-2.07,4c-1.52.14-2.77-1.67-2.77-1.67l-7.14-9.29S76.42,75,75.07,77a12.18,12.18,0,0,0-2,7.2,17.54,17.54,0,0,0,2.82,9.32C77.81,96.15,92.3,116,92.3,116l-9.39,7.49s-15-20.24-17.47-24.33a30.42,30.42,0,0,1-3-7.35,25.23,25.23,0,0,1-1.08-7.88,22.36,22.36,0,0,1,2.58-11.16A60.76,60.76,0,0,1,69,65.09l-9.79-5.9s-2-.87-1.92-2.3c0-1.16,3.22-2.18,3.22-2.18"/><path class="cls-1" d="M79.89,130.21c-1.68,0-3.33-.08-4.94-.24l.2-2.09c1.55.15,3.14.23,4.72.23l0,1.81v.29Zm5-.24-.21-2.1a45.89,45.89,0,0,0,4.68-.69l.41,2.07c-1.6.32-3.25.56-4.88.72m-14.79-.72a49.27,49.27,0,0,1-4.79-1.19l.61-2c1.51.46,3.05.84,4.59,1.15ZM94.52,128l-.61-2c1.5-.46,3-1,4.45-1.6l.81,1.94c-1.52.64-3.09,1.19-4.65,1.67m-33.9-1.65-.33-.14c-1.4-.59-2.79-1.25-4.13-2l1-1.85c1.28.68,2.61,1.32,4,1.89l.31.13Zm43-2.13-1-1.85c1.38-.75,2.75-1.57,4-2.44l1.17,1.75c-1.36.91-2.78,1.76-4.23,2.54m-51.7-2.52c-1.37-.91-2.7-1.9-4-2.94l1.34-1.63A47.1,47.1,0,0,0,53.09,120Zm59.89-3-1.34-1.62c1.21-1,2.38-2.06,3.48-3.16l1.51,1.46,0,0c-1.16,1.16-2.38,2.27-3.63,3.3M44.3,115.48h0c-1.17-1.16-2.28-2.39-3.32-3.64l1.63-1.34c1,1.21,2.06,2.38,3.17,3.5Zm74.49-3.69-1.63-1.34a45.39,45.39,0,0,0,2.82-3.79l1.75,1.16a47.9,47.9,0,0,1-2.94,4M38,107.87a46.58,46.58,0,0,1-2.54-4.24l1.85-1c.74,1.39,1.56,2.76,2.43,4.06Zm86.22-4.28-1.85-1c.68-1.27,1.31-2.6,1.88-3.93l.14-.35,1.95.8-.16.37c-.59,1.39-1.25,2.77-2,4.1M33.39,99.17a46,46,0,0,1-1.67-4.65l2-.61a47.19,47.19,0,0,0,1.6,4.45ZM128,94.48l-2-.61a46.66,46.66,0,0,0,1.15-4.59l2.06.41c-.31,1.6-.72,3.21-1.19,4.79M30.52,89.73c-.32-1.6-.56-3.25-.72-4.88l2.09-.21c.16,1.57.39,3.15.69,4.68Zm99.42-4.93-2.09-.2c.15-1.55.22-3.13.22-4.69l1.82,0h.28a47.13,47.13,0,0,1-.23,4.92M29.57,79.91h0c0-1.65.08-3.3.23-4.92l2.09.2c-.15,1.55-.22,3.14-.22,4.72Zm98.27-4.77a46.3,46.3,0,0,0-.69-4.68l2.06-.41c.32,1.61.57,3.26.73,4.89ZM32.58,70.51l-2.06-.41a49.27,49.27,0,0,1,1.19-4.79l2,.61c-.45,1.51-.84,3-1.14,4.59M126,65.87c-.45-1.49-1-3-1.59-4.45l1.94-.81c.63,1.53,1.19,3.09,1.67,4.65Zm-90.68-4.4-1.94-.81.14-.34c.59-1.4,1.25-2.79,2-4.12l1.85,1c-.68,1.27-1.32,2.6-1.89,4Zm87.06-4.32c-.74-1.38-1.56-2.75-2.44-4.06l1.75-1.17c.92,1.37,1.77,2.79,2.55,4.23Zm-82.6-4L38,52c.91-1.36,1.9-2.69,2.94-4l1.63,1.34a47.1,47.1,0,0,0-2.82,3.79m77.34-3.83c-1-1.2-2.05-2.37-3.16-3.48l1.46-1.51,0,0c1.15,1.16,2.26,2.38,3.29,3.63ZM45.74,45.87l-1.45-1.52,0,0c1.15-1.15,2.38-2.27,3.63-3.3l1.34,1.62c-1.2,1-2.38,2.06-3.49,3.17Zm64.69-3.25a45.55,45.55,0,0,0-3.8-2.82l1.17-1.75c1.36.91,2.7,1.9,4,2.94Zm-57.36-2.8L51.9,38.08c1.37-.91,2.79-1.77,4.23-2.55l1,1.86c-1.39.74-2.75,1.56-4.06,2.43m49.51-2.45c-1.28-.69-2.61-1.32-3.94-1.89l-.34-.14.81-1.94.34.15c1.4.59,2.79,1.24,4.12,2Zm-41.18-2-.8-1.94c1.51-.63,3.08-1.19,4.64-1.67l.61,2c-1.5.46-3,1-4.45,1.6m32.45-1.61c-1.51-.45-3-.84-4.59-1.15l.4-2.06c1.61.32,3.22.72,4.79,1.19ZM70.44,32.61,70,30.55c1.61-.32,3.25-.56,4.89-.72l.2,2.1c-1.57.15-3.14.38-4.68.68m14.14-.69c-1.55-.15-3.13-.22-4.71-.22l0-2.1h0c1.65,0,3.3.07,4.91.23Z"/><polygon class="cls-1" points="24.96 105.91 26.77 109.65 25.73 112.65 21.99 114.47 18.97 113.43 16.26 107.84 17.31 104.82 19.8 103.61 21.49 107.1 20.24 107.71 20.02 108.31 20.93 110.17 21.53 110.38 22.8 109.76 23 109.16 21.2 105.44 22.25 102.42 25.94 100.63 28.95 101.67 31.67 107.27 30.62 110.28 28.19 111.46 26.49 107.97 27.68 107.4 27.89 106.79 26.99 104.93 26.4 104.72 25.18 105.31 24.96 105.91"/><polygon class="cls-1" points="15.01 93.41 15.11 93.86 12 94.55 10.72 88.85 13.83 88.15 14.11 89.39 22.23 90.22 22.07 89.51 25.18 88.81 26.83 96.14 23.72 96.84 23.58 96.24 16.59 100.45 16.84 101.56 13.73 102.26 12.49 96.7 15.59 96 15.7 96.47 19.95 93.9 15.01 93.41"/><path class="cls-1" d="M12.68,85.32,10.43,83l0-6.21,2.29-2.24,9.59.07,2.24,2.27-.05,6.21-2.26,2.24Zm1.42-6.84-.46.44V81l.45.46,6.85,0,.44-.45,0-2.07L21,78.53Z"/><polygon class="cls-1" points="14.89 67.01 22.46 68.61 22.99 66.13 22.16 65.95 22.82 62.85 26.76 63.68 24.6 73.9 21.48 73.24 21.66 72.41 14.08 70.8 13.91 71.63 10.79 70.97 11.95 65.52 15.06 66.18 14.89 67.01"/><polygon class="cls-1" points="22.38 48.22 21.09 51.11 20.33 50.77 19.98 51.54 27.06 54.7 27.4 53.92 30.31 55.22 28.03 60.33 25.12 59.03 25.48 58.24 18.4 55.09 18.05 55.88 18.81 56.22 17.52 59.11 13.85 57.48 18.71 46.58 22.38 48.22"/><path class="cls-1" d="M27.09,34.68l2.52,2-.44.56,8,2.3.52-.68,2.51,2L36.9,45.07l-2.52-2,.29-.36L34,42.53l-2.29,2.95.36.56.28-.36,2.52,2L31.6,51.91,29.08,50l.52-.68-4.22-7.19-.38.48-2.51-2Zm3.11,8.38,1.1-1.42L29,41Z"/><polygon class="cls-1" points="42.09 32.33 38.86 34.95 35.69 34.62 33.08 31.38 33.4 28.2 38.23 24.29 41.41 24.63 43.15 26.78 40.13 29.23 39.26 28.14 38.63 28.07 37.03 29.37 36.96 30.01 37.84 31.11 38.48 31.16 41.69 28.56 44.87 28.9 47.45 32.09 47.12 35.26 42.28 39.17 39.12 38.84 37.41 36.73 40.42 34.29 41.26 35.32 41.9 35.38 43.5 34.08 43.57 33.47 42.72 32.41 42.09 32.33"/><polygon class="cls-1" points="55.43 18.96 52.6 20.39 52.23 19.65 51.47 20.03 54.96 26.94 55.72 26.56 57.15 29.41 52.16 31.93 50.73 29.08 51.5 28.69 48.01 21.78 47.24 22.17 47.61 22.91 44.78 24.33 42.97 20.75 53.63 15.38 55.43 18.96"/><polygon class="cls-1" points="71 22.81 69.34 25.54 63.3 27 60.58 25.34 58.53 16.91 57.71 17.11 56.96 14.01 62.38 12.7 63.13 15.8 62.31 16 64.03 23.09 64.57 23.41 66.58 22.93 66.91 22.4 65.19 15.3 64.37 15.49 63.62 12.4 69.04 11.09 69.78 14.18 68.96 14.38 71 22.81"/><path class="cls-1" d="M72.87,10.51l8.75,0,2.26,2.26,0,9.6L81.66,24.6l-8.74,0V21.44h.85l0-7.74h-.85Zm4.77,10.91h1.93L80,21l0-6.85-.46-.46H77.61Z"/><polygon class="cls-1" points="89.96 22.27 92.39 22.73 92.49 22.19 95.62 22.78 94.92 26.46 84.72 24.51 85.31 21.38 86.15 21.54 87.6 13.94 86.77 13.78 87.37 10.65 97.57 12.6 96.87 16.26 93.74 15.66 93.84 15.13 91.41 14.66 90.99 16.89 91.55 17 91.66 16.47 94.77 17.06 93.96 21.28 90.85 20.68 90.96 20.13 90.39 20.02 89.96 22.27"/><polygon class="cls-1" points="103.4 29.82 102.47 22.51 101.21 25.38 101.98 25.72 100.7 28.63 95.6 26.39 96.88 23.47 97.66 23.81 100.77 16.72 100 16.38 101.28 13.47 105.48 15.32 106.43 22.8 107.75 19.8 106.98 19.45 108.26 16.54 113.36 18.78 112.08 21.7 111.3 21.36 108.19 28.44 108.96 28.79 107.68 31.7 103.4 29.82"/><polygon class="cls-1" points="123.81 31.13 121.28 29.22 121.78 28.56 121.11 28.04 116.43 34.22 117.1 34.73 115.17 37.27 110.72 33.89 112.65 31.35 113.33 31.87 118.01 25.7 117.32 25.18 116.82 25.84 114.3 23.92 116.72 20.73 126.23 27.93 123.81 31.13"/><polygon class="cls-1" points="121.79 43.75 117.98 39.69 120.3 37.51 120.88 38.13 126.53 32.83 125.95 32.21 128.27 30.03 132.09 34.1 129.76 36.28 129.18 35.66 123.53 40.96 124.11 41.57 121.79 43.75"/><polygon class="cls-1" points="132.56 50.91 133.24 52.17 134.13 51.68 134.82 52.96 132.75 54.07 130.41 49.72 131.58 49.09 131.85 49.59 136.22 47.23 135.96 46.74 137.15 46.1 138.37 48.38 137.16 49.03 136.91 48.56 132.56 50.91"/><path class="cls-1" d="M133.89,56.66l-.78-1.86,1.21-.5.11.25,5-.86-.13-.31,1.26-.54.89,2.1-1.25.52-.1-.24L136,58.31l.11.25-1.23.52-.78-1.86,1.23-.52.13.3.34-.26-.42-1-.42.06.13.32Zm2.78-.55,1-.72-1.21.17Z"/><polygon class="cls-1" points="138.47 62.58 138.84 64.02 137.94 64.24 138.36 65.93 140.15 65.48 139.54 63.05 140.04 62.18 143.04 61.43 143.86 61.95 144.66 65.11 144.09 66.06 142.67 66.42 142.29 64.93 143.15 64.71 142.73 63.05 141.06 63.47 141.67 65.91 141.16 66.76 138.13 67.52 137.26 66.99 136.49 63.92 137.08 62.92 138.47 62.58"/><polygon class="cls-1" points="138.17 72.21 137.79 69.69 139.12 69.5 139.19 69.99 144.09 69.26 144.02 68.78 143.11 68.92 142.93 67.7 145.15 67.37 145.88 72.26 143.66 72.59 143.47 71.37 144.38 71.24 144.31 70.76 139.41 71.49 139.49 72.01 138.17 72.21"/><polygon class="cls-1" points="138.6 77.83 138.49 75.59 139.28 74.73 144.76 74.45 144.74 74.04 146.06 73.97 146.16 76.02 144.83 76.09 144.81 75.74 139.88 76 139.94 77.3 144.88 77.05 144.86 76.67 146.19 76.61 146.3 78.66 144.97 78.73 144.95 78.33 139.48 78.61 138.6 77.83"/><path class="cls-1" d="M138.52,84.18l.2-4.21L140,80l0,.56,5,.23,0-.57,1.37.07-.2,4.23-.78.81-6.14-.28Zm6.31-.45.07-1.41L140,82.09l-.06,1.42Z"/><polygon class="cls-1" points="137.69 90.84 138.42 85.92 139.74 86.11 139.66 86.65 144.57 87.37 144.66 86.8 145.99 87 145.26 91.96 143.08 91.64 143.29 90.19 144.12 90.31 144.33 88.85 142.59 88.59 142.42 89.73 141.09 89.53 141.26 88.4 139.44 88.13 139.22 89.61 140.23 89.76 140.01 91.19 137.69 90.84"/><polygon class="cls-1" points="136.92 94.11 137.54 91.67 138.88 92.02 138.74 92.57 143.53 93.78 143.67 93.21 144.97 93.54 144.42 95.69 140.98 95.96 142.88 96.44 143.01 95.92 144.28 96.24 143.63 98.77 142.34 98.44 142.47 97.92 137.69 96.71 137.56 97.23 136.22 96.89 136.72 94.89 140.82 94.62 138.36 94 138.25 94.44 136.92 94.11"/><polygon class="cls-1" points="134.72 101.13 135.6 98.74 136.85 99.2 136.68 99.67 141.33 101.37 141.5 100.92 140.63 100.6 141.06 99.44 143.17 100.22 141.47 104.86 139.36 104.09 139.78 102.93 140.64 103.25 140.81 102.79 136.16 101.09 135.98 101.59 134.72 101.13"/><polygon class="cls-1" points="136.02 104.04 135.37 105.38 134.53 104.97 133.78 106.54 135.44 107.34 136.53 105.08 137.48 104.74 140.26 106.08 140.56 107 139.15 109.93 138.11 110.3 136.78 109.67 137.45 108.29 138.24 108.67 138.99 107.12 137.43 106.38 136.34 108.64 135.41 108.97 132.59 107.62 132.26 106.65 133.63 103.8 134.72 103.41 136.02 104.04"/><polygon class="cls-1" points="136.84 111.04 138.38 111.93 137.42 113.6 135.89 112.72 135.35 110.77 136.59 111.47 136.84 111.04"/><polygon class="cls-1" points="125.86 116.5 127.23 114.72 128.38 114.59 132.74 117.93 132.99 117.6 134.03 118.41 132.78 120.04 131.72 119.22 131.94 118.94 128.02 115.93 127.22 116.97 131.14 119.98 131.36 119.69 132.42 120.5 131.17 122.13 130.11 121.31 130.35 121 126.02 117.66 125.86 116.5"/><polygon class="cls-1" points="122.89 119.96 124.61 118.14 125.61 119.08 125.22 119.5 128.82 122.88 129.22 122.45 130.19 123.37 128.67 124.98 125.53 123.55 126.96 124.89 127.33 124.5 128.28 125.4 126.49 127.3 125.52 126.38 125.89 125.99 122.3 122.61 121.93 123 120.92 122.05 122.33 120.55 126.05 122.3 124.2 120.56 123.88 120.9 122.89 119.96"/><polygon class="cls-1" points="119.29 125.32 118.4 124.33 120.32 122.59 121.22 123.58 120.8 123.95 124.13 127.64 124.53 127.27 125.44 128.28 123.52 130.01 122.6 128.99 123 128.63 120.92 126.32 119.69 124.96 119.29 125.32"/><path class="cls-1" d="M117.25,125.32l.86.12,3.84,5-.12,1-2.49,1.92-1-.12-3.8-4.93.12-1Zm1.86,6.5,1.28-1-3-3.92-1.28,1Z"/><polygon class="cls-1" points="111.21 129.64 113.34 128.31 114.07 129.49 113.59 129.78 116.2 133.97 116.7 133.66 117.41 134.79 115.53 135.97 112.86 133.78 113.89 135.44 114.35 135.16 115.05 136.27 112.83 137.65 112.12 136.52 112.58 136.23 109.97 132.05 109.51 132.34 108.78 131.16 110.53 130.07 113.67 132.71 112.33 130.55 111.93 130.8 111.21 129.64"/><path class="cls-1" d="M101.11,134.75l3.89-1.63.52,1.22-.53.22,1.92,4.58.52-.22.53,1.27L104,141.83l-1.06-.36-2.37-5.68Zm3.1,5.52,1.31-.55-1.9-4.56-1.31.54Z"/><polygon class="cls-1" points="94.72 136.85 99.49 135.4 99.88 136.68 99.36 136.84 100.8 141.59 101.35 141.42 101.74 142.72 96.94 144.17 96.3 142.06 97.7 141.63 97.94 142.43 99.36 142 98.85 140.32 97.75 140.65 97.36 139.36 98.46 139.03 97.93 137.27 96.5 137.71 96.79 138.68 95.4 139.09 94.72 136.85"/><polygon class="cls-1" points="92.13 138.78 90.72 139.06 90.92 140.05 89.5 140.33 89.04 138.02 93.89 137.07 94.15 138.38 93.59 138.49 94.56 143.36 95.1 143.25 95.36 144.58 92.83 145.08 92.56 143.73 93.08 143.63 92.13 138.78"/><path class="cls-1" d="M82,138.65l2.63-.11,0,1.34-.53,0,.19,4.92.55,0,.05,1.38-3.94.15-.77-.72-.11-2.87.74-.83,1.81-.07L82.55,140,82,140Zm-.19,6.3,1,0-.07-1.68-1,0Z"/><path class="cls-1" d="M78.49,138.71l.58.65-.34,6.28-.77.7-3.14-.17-.68-.75.35-6.22.73-.67Zm-2.83,6.13,1.62.09.27-5-1.61-.08Z"/><polygon class="cls-1" points="71.33 139.43 69.92 139.22 69.77 140.22 68.34 140 68.69 137.68 73.58 138.42 73.38 139.74 72.81 139.65 72.07 144.56 72.62 144.64 72.42 145.98 69.86 145.59 70.07 144.24 70.59 144.31 71.33 139.43"/><polygon class="cls-1" points="64.99 138.18 65.3 136.88 67.83 137.47 67.52 138.78 66.98 138.65 65.84 143.48 66.38 143.6 66.06 144.92 63.55 144.33 63.86 142.99 64.39 143.12 65.1 140.09 65.52 138.31 64.99 138.18"/><polygon class="cls-1" points="60.84 135.55 63.27 136.33 62.86 137.6 62.38 137.45 60.87 142.16 61.33 142.31 61.61 141.44 62.78 141.82 62.09 143.95 57.38 142.44 58.07 140.3 59.24 140.68 58.96 141.56 59.42 141.7 60.94 136.99 60.43 136.82 60.84 135.55"/><polygon class="cls-1" points="54.32 132.91 58.88 134.9 58.35 136.13 57.86 135.91 55.88 140.46 56.41 140.69 55.87 141.93 51.26 139.93 52.15 137.91 53.49 138.49 53.16 139.25 54.51 139.84 55.22 138.23 54.17 137.77 54.7 136.54 55.75 137 56.49 135.31 55.11 134.72 54.71 135.64 53.38 135.07 54.32 132.91"/><polygon class="cls-1" points="49.47 133.34 48.16 132.62 49.13 130.88 50.07 130.61 52.94 132.2 53.22 133.19 50.15 138.71 49.3 138.93 46.35 137.3 46.08 136.36 46.8 135.07 48.09 135.8 47.72 136.48 49.23 137.32 51.63 133 50.13 132.17 49.47 133.34"/><polygon class="cls-1" points="46.67 128.41 48.73 129.84 47.94 130.98 47.48 130.65 44.66 134.71 45.15 135.04 44.38 136.14 42.56 134.88 43.52 131.56 42.4 133.17 42.84 133.48 42.1 134.56 39.95 133.06 40.71 131.97 41.15 132.27 43.96 128.22 43.52 127.91 44.31 126.78 46 127.95 44.82 131.88 46.27 129.79 45.89 129.53 46.67 128.41"/><polygon class="cls-1" points="40.83 125.65 41.68 124.61 43.69 126.26 42.84 127.29 42.41 126.94 39.25 130.77 39.68 131.12 38.82 132.16 36.82 130.52 37.69 129.46 38.11 129.81 40.08 127.41 41.25 125.99 40.83 125.65"/><polygon class="cls-1" points="36.81 123.78 35.74 122.74 37.11 121.31 38.09 121.29 40.46 123.56 40.48 124.58 36.1 129.14 35.22 129.14 32.79 126.81 32.76 125.83 33.79 124.77 34.86 125.8 34.32 126.37 35.57 127.57 38.99 124 37.75 122.81 36.81 123.78"/><path class="cls-1" d="M36.59,119.74l-.06.87-4.77,4.11-1-.07-2-2.38.07-1,4.72-4.07,1,.07ZM30.21,122l1.06,1.23L35,119.94,34,118.72Z"/><path class="cls-1" d="M207.69,74.79V77.9c0,9.93,2.82,16.3,14.07,16.3,6.52,0,12.74-4.15,12.74-13,0-9.62-4.89-13.18-19-18.07-19-6.51-27.69-14.36-27.69-32,0-20.58,12.59-31.1,32.73-31.1,19,0,32.73,8.15,32.73,28.44v3H232.87c0-9.93-3.41-15.7-11.55-15.7-9.63,0-12.15,6.07-12.15,12.29,0,6.52,1.93,10.52,11,14.37l16.44,7.11c16,7,20.14,15.1,20.14,28,0,22.36-13.62,32.44-36.72,32.44-24.15,0-33.62-11.26-33.62-30.81v-4.3Z"/><polygon class="cls-1" points="283.23 2.07 298.18 80.27 298.63 80.27 314.33 2.07 336.4 2.07 312.11 107.82 284.71 107.82 260.42 2.07 283.23 2.07"/><path class="cls-1" d="M378,0c32,0,36,22.81,36,55s-4,55-36,55S342,87.08,342,55,346,0,378,0m0,94.2c12.59,0,14.66-10.82,14.66-39.25S390.6,15.7,378,15.7s-14.66,11-14.66,39.25S365.42,94.2,378,94.2"/><polygon class="cls-1" points="426.59 107.82 426.59 2.07 447.92 2.07 447.92 90.34 485.68 90.34 485.68 107.82 426.59 107.82"/><polygon class="cls-1" points="546.11 2.07 546.11 19.55 523.01 19.55 523.01 107.82 501.68 107.82 501.68 19.55 478.58 19.55 478.58 2.07 546.11 2.07"/><path class="cls-1" d="M567.73,2.07H594.1l28,105.75H599.87L595,85.46H566.84L562,107.82H539.74ZM570.55,68h20.73L581.06,20.44h-.3Z"/><path class="cls-1" d="M646.67,74.79V77.9c0,9.93,2.81,16.3,14.07,16.3,6.52,0,12.74-4.15,12.74-13,0-9.62-4.89-13.18-19-18.07-19-6.51-27.69-14.36-27.69-32,0-20.58,12.59-31.1,32.73-31.1,19,0,32.73,8.15,32.73,28.44v3H671.85c0-9.93-3.41-15.7-11.55-15.7-9.63,0-12.15,6.07-12.15,12.29,0,6.52,1.93,10.52,11,14.37l16.44,7.11c16,7,20.14,15.1,20.14,28,0,22.36-13.62,32.44-36.73,32.44-24.14,0-33.62-11.26-33.62-30.81v-4.3Z"/><polygon class="cls-1" points="768.26 2.07 768.26 19.55 745.16 19.55 745.16 107.82 723.83 107.82 723.83 19.55 700.73 19.55 700.73 2.07 768.26 2.07"/><path class="cls-1" d="M797.44,2.07V75.83c0,10.52,2.52,18.37,12.44,18.37s12.44-7.85,12.44-18.37V2.07h21.33V75.83c0,27-16.44,34.07-33.77,34.07s-33.77-5.78-33.77-34.07V2.07Z"/><path class="cls-1" d="M858.16,2.07h35c29.63,0,35,20.29,35,51.39,0,37.48-8,54.36-36.29,54.36H858.16Zm21.33,90.05H889c14.81,0,17.77-9.33,17.77-38.06,0-24-1.93-36.29-18.22-36.29h-9Z"/><polygon class="cls-1" points="1001.23 2.07 1001.23 19.55 963.46 19.55 963.46 44.43 999 44.43 999 61.91 963.46 61.91 963.46 90.34 1002.71 90.34 1002.71 107.82 942.13 107.82 942.13 2.07 1001.23 2.07"/><polygon class="cls-1" points="1037.95 2.07 1063.72 74.5 1064.02 74.5 1064.02 2.07 1083.57 2.07 1083.57 107.82 1059.28 107.82 1033.21 33.77 1032.92 33.77 1032.92 107.82 1013.37 107.82 1013.37 2.07 1037.95 2.07"/><polygon class="cls-1" points="1160.28 2.07 1160.28 19.55 1137.18 19.55 1137.18 107.82 1115.85 107.82 1115.85 19.55 1092.75 19.55 1092.75 2.07 1160.28 2.07"/><rect class="cls-1" x="1170.5" y="2.07" width="21.33" height="105.75"/><polygon class="cls-1" points="185.62 159.66 185.62 123.71 192.87 123.71 192.87 153.71 205.71 153.71 205.71 159.66 185.62 159.66"/><path class="cls-1" d="M215.94,123.71h9l9.51,36h-7.55l-1.66-7.61h-9.56L214,159.66h-7.55Zm.95,22.4h7.05L220.47,130h-.1Z"/><path class="cls-1" d="M254.86,148.43v1.06c0,3.37,1,5.53,4.78,5.53a4.13,4.13,0,0,0,4.33-4.43c0-3.27-1.66-4.48-6.44-6.14-6.44-2.21-9.42-4.88-9.42-10.87,0-7,4.28-10.57,11.13-10.57,6.44,0,11.12,2.77,11.12,9.66v1h-6.94c0-3.37-1.16-5.34-3.93-5.34-3.27,0-4.13,2.07-4.13,4.18s.66,3.58,3.73,4.88l5.59,2.42c5.43,2.37,6.84,5.14,6.84,9.52,0,7.6-4.63,11-12.48,11-8.21,0-11.43-3.83-11.43-10.47v-1.46Z"/><polygon class="cls-1" points="296.2 123.71 296.2 129.65 288.34 129.65 288.34 159.66 281.1 159.66 281.1 129.65 273.24 129.65 273.24 123.71 296.2 123.71"/><path class="cls-1" d="M306.12,123.71v25.07c0,3.58.86,6.24,4.23,6.24s4.23-2.66,4.23-6.24V123.71h7.25v25.07c0,9.16-5.59,11.58-11.48,11.58s-11.48-2-11.48-11.58V123.71Z"/><path class="cls-1" d="M326.77,123.71h11.88c10.07,0,11.88,6.9,11.88,17.47,0,12.74-2.72,18.48-12.33,18.48H326.77ZM334,154.32h3.23c5,0,6-3.17,6-12.94,0-8.16-.66-12.33-6.19-12.33H334Z"/><polygon class="cls-1" points="375.4 123.71 375.4 129.65 362.57 129.65 362.57 138.11 374.65 138.11 374.65 144.05 362.57 144.05 362.57 153.72 375.91 153.72 375.91 159.66 355.32 159.66 355.32 123.71 375.4 123.71"/><polygon class="cls-1" points="387.9 123.71 396.65 148.33 396.76 148.33 396.76 123.71 403.4 123.71 403.4 159.66 395.14 159.66 386.28 134.48 386.18 134.48 386.18 159.66 379.54 159.66 379.54 123.71 387.9 123.71"/><polygon class="cls-1" points="429.49 123.71 429.49 129.65 421.63 129.65 421.63 159.66 414.38 159.66 414.38 129.65 406.53 129.65 406.53 123.71 429.49 123.71"/><path class="cls-1" d="M438.45,148.43v1.06c0,3.37,1,5.53,4.79,5.53a4.13,4.13,0,0,0,4.32-4.43c0-3.27-1.66-4.48-6.44-6.14-6.44-2.21-9.41-4.88-9.41-10.87,0-7,4.27-10.57,11.12-10.57,6.45,0,11.13,2.77,11.13,9.66v1H447c0-3.37-1.16-5.34-3.93-5.34-3.27,0-4.13,2.07-4.13,4.18s.66,3.58,3.73,4.88l5.59,2.42c5.44,2.37,6.84,5.14,6.84,9.52,0,7.6-4.62,11-12.48,11-8.21,0-11.43-3.83-11.43-10.47v-1.46Z"/><path class="cls-1" d="M466.1,130.26c0,5.33-1.26,9.11-6.65,9.61v-3.52c1.76-.31,2.62-2.12,2.62-4v-.8h-2.62v-7.86h6.65Z"/><path class="cls-1" d="M490.72,123.71v25.07c0,3.58.86,6.24,4.23,6.24s4.22-2.66,4.22-6.24V123.71h7.25v25.07c0,9.16-5.58,11.58-11.47,11.58s-11.48-2-11.48-11.58V123.71Z"/><polygon class="cls-1" points="519.37 123.71 528.13 148.33 528.23 148.33 528.23 123.71 534.87 123.71 534.87 159.66 526.62 159.66 517.76 134.48 517.66 134.48 517.66 159.66 511.01 159.66 511.01 123.71 519.37 123.71"/><rect class="cls-1" x="540.27" y="123.71" width="7.25" height="35.94"/><path class="cls-1" d="M564.39,123c10.87,0,12.23,7.75,12.23,18.67s-1.36,18.68-12.23,18.68-12.23-7.75-12.23-18.68S553.51,123,564.39,123m0,32c4.28,0,5-3.67,5-13.34s-.7-13.34-5-13.34-5,3.73-5,13.34.71,13.34,5,13.34"/><polygon class="cls-1" points="589.26 123.71 598.02 148.33 598.12 148.33 598.12 123.71 604.77 123.71 604.77 159.66 596.51 159.66 587.65 134.48 587.55 134.48 587.55 159.66 580.91 159.66 580.91 123.71 589.26 123.71"/><path class="cls-1" d="M622.25,123.71h11.88c10.07,0,11.88,6.9,11.88,17.47,0,12.74-2.72,18.48-12.33,18.48H622.25Zm7.25,30.61h3.22c5,0,6-3.17,6-12.94,0-8.16-.65-12.33-6.19-12.33H629.5Z"/><polygon class="cls-1" points="670.88 123.71 670.88 129.65 658.05 129.65 658.05 138.11 670.13 138.11 670.13 144.05 658.05 144.05 658.05 153.72 671.39 153.72 671.39 159.66 650.8 159.66 650.8 123.71 670.88 123.71"/><polygon class="cls-1" points="675.02 159.66 675.02 123.71 682.27 123.71 682.27 153.71 695.11 153.71 695.11 159.66 675.02 159.66"/><path class="cls-1" d="M710.42,123.71H723.1c7.35,0,9.87,5.39,9.87,10.77,0,7.46-4.58,10.83-11.42,10.83h-3.88v14.34h-7.25ZM717.67,140h3.22c2.87,0,4.83-1.71,4.83-5.39,0-3.52-1.41-5.53-5-5.53h-3Z"/><path class="cls-1" d="M748,123c10.87,0,12.23,7.75,12.23,18.67S758.9,160.36,748,160.36s-12.23-7.75-12.23-18.68S737.16,123,748,123m0,32c4.28,0,5-3.67,5-13.34s-.7-13.34-5-13.34-5,3.73-5,13.34.7,13.34,5,13.34"/><polygon class="cls-1" points="764.55 159.66 764.55 123.71 771.8 123.71 771.8 153.71 784.64 153.71 784.64 159.66 764.55 159.66"/><rect class="cls-1" x="788.22" y="123.71" width="7.25" height="35.94"/><polygon class="cls-1" points="821.9 123.71 821.9 129.65 814.04 129.65 814.04 159.66 806.79 159.66 806.79 129.65 798.94 129.65 798.94 123.71 821.9 123.71"/><polygon class="cls-1" points="845.11 123.71 845.11 129.65 832.27 129.65 832.27 138.11 844.36 138.11 844.36 144.05 832.27 144.05 832.27 153.72 845.62 153.72 845.62 159.66 825.02 159.66 825.02 123.71 845.11 123.71"/><path class="cls-1" d="M864.6,135.84c0-5.23-1.06-7.5-4.33-7.5-3.68,0-4.53,3.68-4.53,13.85,0,10.87,1.51,12.83,4.63,12.83,2.62,0,4.53-1.36,4.53-9.11h7.25c0,7.75-1.91,14.45-11.43,14.45-10.87,0-12.23-7.75-12.23-18.68S849.85,123,860.72,123c10.37,0,11.13,7.6,11.13,12.83Z"/><polygon class="cls-1" points="884.64 123.71 893.4 148.33 893.5 148.33 893.5 123.71 900.14 123.71 900.14 159.66 891.89 159.66 883.03 134.48 882.93 134.48 882.93 159.66 876.28 159.66 876.28 123.71 884.64 123.71"/><rect class="cls-1" x="905.54" y="123.71" width="7.25" height="35.94"/><path class="cls-1" d="M933.54,135.84c0-5.23-1.06-7.5-4.33-7.5-3.68,0-4.53,3.68-4.53,13.85,0,10.87,1.51,12.83,4.63,12.83,2.61,0,4.53-1.36,4.53-9.11h7.25c0,7.75-1.92,14.45-11.43,14.45-10.87,0-12.23-7.75-12.23-18.68S918.79,123,929.66,123c10.37,0,11.12,7.6,11.12,12.83Z"/><path class="cls-1" d="M956.7,123c10.87,0,12.23,7.75,12.23,18.67s-1.36,18.68-12.23,18.68-12.23-7.75-12.23-18.68S945.83,123,956.7,123m0,32c4.28,0,5-3.67,5-13.34s-.7-13.34-5-13.34-5,3.73-5,13.34.71,13.34,5,13.34"/><path class="cls-1" d="M985.65,123.71h11.88c10.07,0,11.88,6.9,11.88,17.47,0,12.74-2.72,18.48-12.33,18.48H985.65Zm7.25,30.61h3.22c5,0,6-3.17,6-12.94,0-8.16-.66-12.33-6.2-12.33H992.9Z"/><rect class="cls-1" x="1014.56" y="123.71" width="7.25" height="35.94"/><polygon class="cls-1" points="1039.43 123.71 1050.21 123.71 1055.34 149.08 1055.44 149.08 1060.63 123.71 1071.35 123.71 1071.35 159.66 1064.7 159.66 1064.7 130.96 1064.6 130.96 1058.21 159.66 1052.57 159.66 1046.18 130.96 1046.08 130.96 1046.08 159.66 1039.43 159.66 1039.43 123.71"/><rect class="cls-1" x="1076.9" y="123.71" width="7.25" height="35.94"/><polygon class="cls-1" points="1089.54 159.66 1089.54 123.71 1096.78 123.71 1096.78 153.71 1109.62 153.71 1109.62 159.66 1089.54 159.66"/><path class="cls-1" d="M1119.85,123.71h9l9.51,36h-7.55l-1.66-7.61h-9.56l-1.67,7.61h-7.55Zm1,22.4h7L1124.38,130h-.1Z"/><polygon class="cls-1" points="1149.2 123.71 1157.96 148.33 1158.06 148.33 1158.06 123.71 1164.71 123.71 1164.71 159.66 1156.45 159.66 1147.59 134.48 1147.49 134.48 1147.49 159.66 1140.85 159.66 1140.85 123.71 1149.2 123.71"/><path class="cls-1" d="M1181.23,123c10.87,0,12.23,7.75,12.23,18.67s-1.36,18.68-12.23,18.68S1169,152.61,1169,141.68s1.36-18.67,12.23-18.67m0,32c4.28,0,5-3.67,5-13.34s-.7-13.34-5-13.34-5,3.73-5,13.34.71,13.34,5,13.34"/></g></g></svg>