<?xml version="1.0" encoding="utf-8"?>
<!-- Generator: Adobe Illustrator 25.2.1, SVG Export Plug-In . SVG Version: 6.00 Build 0)  -->
<svg version="1.1" id="Layer_1" xmlns="http://www.w3.org/2000/svg" xmlns:xlink="http://www.w3.org/1999/xlink" x="0px" y="0px"
	 viewBox="0 0 1193.5 160.4" style="enable-background:new 0 0 1193.5 160.4;" xml:space="preserve">
<style type="text/css">
	.st0{fill:#FF6600;}
</style>
<g id="Livello_2">
	<g id="Livello_1-2">
		<path class="st0" d="M79.9,4.9c41.3,0.1,74.7,33.6,74.6,74.8s-33.6,74.7-74.8,74.6S5,120.8,5.1,79.5c0-30,18-57,45.6-68.7
			C59.9,6.9,69.8,4.9,79.9,4.9 M79.9,0C35.8,0.1,0,35.8,0.1,80s35.8,79.9,79.9,79.8c10.7,0,21.2-2.1,31-6.3
			c40.6-17.1,59.7-63.9,42.5-104.6c-4-9.5-9.9-18.2-17.2-25.5C121.4,8.4,101.1,0,79.9,0"/>
		<path class="st0" d="M60.5,54.7l33.4-13.4c0,0,2.8-1.5,4.2-0.6s0.5,3.6,0.5,3.6l-8.4,35.4c0,0-1,3.9-2.1,4
			c-1.5,0.1-2.8-1.7-2.8-1.7l-7.1-9.3c0,0-1.8,2.2-3.2,4.2c-1.4,2.1-2.1,4.6-2,7.2c0,3.3,1,6.5,2.8,9.3c1.9,2.6,16.4,22.5,16.4,22.5
			l-9.4,7.5c0,0-15-20.2-17.5-24.3c-1.3-2.3-2.3-4.8-3-7.3c-0.8-2.6-1.1-5.2-1.1-7.9c-0.1-3.9,0.8-7.7,2.6-11.2
			c1.5-2.7,3.2-5.3,5.1-7.7l-9.8-5.9c0,0-2-0.9-1.9-2.3C57.3,55.7,60.5,54.7,60.5,54.7"/>
		<path class="st0" d="M79.9,130.2c-1.7,0-3.3-0.1-4.9-0.2l0.2-2.1c1.6,0.1,3.1,0.2,4.7,0.2v1.8L79.9,130.2L79.9,130.2z M84.9,130
			l-0.2-2.1c1.6-0.1,3.1-0.4,4.7-0.7l0.4,2.1C88.2,129.6,86.5,129.8,84.9,130 M70.1,129.2c-1.6-0.3-3.2-0.7-4.8-1.2l0.6-2
			c1.5,0.5,3.1,0.8,4.6,1.2L70.1,129.2z M94.5,128l-0.6-2c1.5-0.5,3-1,4.4-1.6l0.8,1.9C97.6,127,96.1,127.5,94.5,128 M60.6,126.4
			l-0.3-0.1c-1.4-0.6-2.8-1.2-4.1-2l1-1.8c1.3,0.7,2.6,1.3,4,1.9l0.3,0.1L60.6,126.4z M103.6,124.2l-1-1.8c1.4-0.8,2.8-1.6,4-2.4
			l1.2,1.8C106.4,122.6,105,123.5,103.6,124.2 M51.9,121.7c-1.4-0.9-2.7-1.9-4-2.9l1.3-1.6c1.2,1,2.5,2,3.9,2.9L51.9,121.7z
			 M111.7,118.7l-1.3-1.6c1.2-1,2.4-2.1,3.5-3.2l1.5,1.5l0,0C114.2,116.6,113,117.7,111.7,118.7 M44.3,115.5L44.3,115.5
			c-1.2-1.2-2.3-2.4-3.3-3.6l1.6-1.3c1,1.2,2.1,2.4,3.2,3.5L44.3,115.5z M118.8,111.8l-1.6-1.3c1-1.2,1.9-2.5,2.8-3.8l1.8,1.2
			C120.8,109.2,119.8,110.5,118.8,111.8 M38,107.9c-0.9-1.4-1.8-2.8-2.5-4.2l1.8-1c0.7,1.4,1.6,2.8,2.4,4.1L38,107.9z M124.2,103.6
			l-1.8-1c0.7-1.3,1.3-2.6,1.9-3.9l0.1-0.3l1.9,0.8l-0.2,0.4C125.6,100.9,124.9,102.3,124.2,103.6 M33.4,99.2
			c-0.6-1.5-1.2-3.1-1.7-4.7l2-0.6c0.5,1.5,1,3,1.6,4.4L33.4,99.2z M128,94.5l-2-0.6c0.5-1.5,0.8-3,1.2-4.6l2.1,0.4
			C128.9,91.3,128.5,92.9,128,94.5 M30.5,89.7c-0.3-1.6-0.6-3.2-0.7-4.9l2.1-0.2c0.2,1.6,0.4,3.2,0.7,4.7L30.5,89.7z M129.9,84.8
			l-2.1-0.2c0.1-1.6,0.2-3.1,0.2-4.7h1.8h0.3C130.2,81.6,130.1,83.2,129.9,84.8 M29.6,79.9L29.6,79.9c0-1.7,0.1-3.3,0.2-4.9l2.1,0.2
			c-0.1,1.6-0.2,3.1-0.2,4.7H29.6z M127.8,75.1c-0.2-1.6-0.4-3.1-0.7-4.7l2.1-0.4c0.3,1.6,0.6,3.3,0.7,4.9L127.8,75.1z M32.6,70.5
			l-2.1-0.4c0.3-1.6,0.7-3.2,1.2-4.8l2,0.6C33.3,67.4,32.9,68.9,32.6,70.5 M126,65.9c-0.4-1.5-1-3-1.6-4.5l1.9-0.8
			c0.6,1.5,1.2,3.1,1.7,4.7L126,65.9z M35.3,61.5l-1.9-0.8l0.1-0.3c0.6-1.4,1.2-2.8,2-4.1l1.8,1c-0.7,1.3-1.3,2.6-1.9,4L35.3,61.5z
			 M122.4,57.2c-0.7-1.4-1.6-2.8-2.4-4.1l1.8-1.2c0.9,1.4,1.8,2.8,2.6,4.2L122.4,57.2z M39.8,53.2L38,52c0.9-1.4,1.9-2.7,2.9-4
			l1.6,1.3C41.6,50.6,40.6,51.8,39.8,53.2 M117.1,49.3c-1-1.2-2.1-2.4-3.2-3.5l1.5-1.5l0,0c1.2,1.2,2.3,2.4,3.3,3.6L117.1,49.3z
			 M45.7,45.9l-1.5-1.5l0,0c1.2-1.2,2.4-2.3,3.6-3.3l1.3,1.6C48.1,43.7,46.9,44.7,45.7,45.9L45.7,45.9z M110.4,42.6
			c-1.2-1-2.5-1.9-3.8-2.8l1.2-1.8c1.4,0.9,2.7,1.9,4,2.9L110.4,42.6z M53.1,39.8l-1.2-1.7c1.4-0.9,2.8-1.8,4.2-2.5l1,1.9
			C55.7,38.1,54.4,39,53.1,39.8 M102.6,37.4c-1.3-0.7-2.6-1.3-3.9-1.9l-0.3-0.1l0.8-1.9l0.3,0.2c1.4,0.6,2.8,1.2,4.1,2L102.6,37.4z
			 M61.4,35.4l-0.8-1.9c1.5-0.6,3.1-1.2,4.6-1.7l0.6,2C64.4,34.2,62.9,34.8,61.4,35.4 M93.9,33.8c-1.5-0.5-3-0.8-4.6-1.2l0.4-2.1
			c1.6,0.3,3.2,0.7,4.8,1.2L93.9,33.8z M70.4,32.6L70,30.5c1.6-0.3,3.2-0.6,4.9-0.7l0.2,2.1C73.5,32.1,71.9,32.3,70.4,32.6
			 M84.5,31.9c-1.6-0.1-3.1-0.2-4.7-0.2v-2.1l0,0c1.7,0,3.3,0.1,4.9,0.2L84.5,31.9z"/>
		<polygon class="st0" points="25,105.9 26.8,109.7 25.7,112.7 22,114.5 19,113.4 16.3,107.8 17.3,104.8 19.8,103.6 21.5,107.1 
			20.2,107.7 20,108.3 20.9,110.2 21.5,110.4 22.8,109.8 23,109.2 21.2,105.4 22.2,102.4 25.9,100.6 29,101.7 31.7,107.3 
			30.6,110.3 28.2,111.5 26.5,108 27.7,107.4 27.9,106.8 27,104.9 26.4,104.7 25.2,105.3 		"/>
		<polygon class="st0" points="15,93.4 15.1,93.9 12,94.6 10.7,88.8 13.8,88.2 14.1,89.4 22.2,90.2 22.1,89.5 25.2,88.8 26.8,96.1 
			23.7,96.8 23.6,96.2 16.6,100.4 16.8,101.6 13.7,102.3 12.5,96.7 15.6,96 15.7,96.5 20,93.9 		"/>
		<path class="st0" d="M12.7,85.3L10.4,83v-6.2l2.3-2.2l9.6,0.1l2.2,2.3l0,6.2l-2.3,2.2L12.7,85.3z M14.1,78.5l-0.5,0.4V81l0.4,0.5
			h6.9l0.4-0.4v-2.1L21,78.5L14.1,78.5z"/>
		<polygon class="st0" points="14.9,67 22.5,68.6 23,66.1 22.2,65.9 22.8,62.8 26.8,63.7 24.6,73.9 21.5,73.2 21.7,72.4 14.1,70.8 
			13.9,71.6 10.8,71 11.9,65.5 15.1,66.2 		"/>
		<polygon class="st0" points="22.4,48.2 21.1,51.1 20.3,50.8 20,51.5 27.1,54.7 27.4,53.9 30.3,55.2 28,60.3 25.1,59 25.5,58.2 
			18.4,55.1 18,55.9 18.8,56.2 17.5,59.1 13.9,57.5 18.7,46.6 		"/>
		<path class="st0" d="M27.1,34.7l2.5,2l-0.4,0.6l8,2.3l0.5-0.7l2.5,2l-3.3,4.2l-2.5-2l0.3-0.4L34,42.5l-2.3,3l0.4,0.6l0.3-0.4
			l2.5,2l-3.3,4.2L29.1,50l0.5-0.7l-4.2-7.2L25,42.6l-2.5-2L27.1,34.7z M30.2,43.1l1.1-1.4L29,41L30.2,43.1z"/>
		<polygon class="st0" points="42.1,32.3 38.9,35 35.7,34.6 33.1,31.4 33.4,28.2 38.2,24.3 41.4,24.6 43.2,26.8 40.1,29.2 
			39.3,28.1 38.6,28.1 37,29.4 37,30 37.8,31.1 38.5,31.2 41.7,28.6 44.9,28.9 47.5,32.1 47.1,35.3 42.3,39.2 39.1,38.8 37.4,36.7 
			40.4,34.3 41.3,35.3 41.9,35.4 43.5,34.1 43.6,33.5 42.7,32.4 		"/>
		<polygon class="st0" points="55.4,19 52.6,20.4 52.2,19.6 51.5,20 55,26.9 55.7,26.6 57.2,29.4 52.2,31.9 50.7,29.1 51.5,28.7 
			48,21.8 47.2,22.2 47.6,22.9 44.8,24.3 43,20.8 53.6,15.4 		"/>
		<polygon class="st0" points="71,22.8 69.3,25.5 63.3,27 60.6,25.3 58.5,16.9 57.7,17.1 57,14 62.4,12.7 63.1,15.8 62.3,16 
			64,23.1 64.6,23.4 66.6,22.9 66.9,22.4 65.2,15.3 64.4,15.5 63.6,12.4 69,11.1 69.8,14.2 69,14.4 		"/>
		<path class="st0" d="M72.9,10.5h8.8l2.3,2.3v9.6l-2.2,2.2h-8.7v-3.2h0.8v-7.7h-0.8L72.9,10.5z M77.6,21.4h1.9L80,21v-6.9l-0.5-0.5
			h-1.9L77.6,21.4z"/>
		<polygon class="st0" points="90,22.3 92.4,22.7 92.5,22.2 95.6,22.8 94.9,26.5 84.7,24.5 85.3,21.4 86.2,21.5 87.6,13.9 
			86.8,13.8 87.4,10.6 97.6,12.6 96.9,16.3 93.7,15.7 93.8,15.1 91.4,14.7 91,16.9 91.6,17 91.7,16.5 94.8,17.1 94,21.3 90.8,20.7 
			91,20.1 90.4,20 		"/>
		<polygon class="st0" points="103.4,29.8 102.5,22.5 101.2,25.4 102,25.7 100.7,28.6 95.6,26.4 96.9,23.5 97.7,23.8 100.8,16.7 
			100,16.4 101.3,13.5 105.5,15.3 106.4,22.8 107.8,19.8 107,19.5 108.3,16.5 113.4,18.8 112.1,21.7 111.3,21.4 108.2,28.4 
			109,28.8 107.7,31.7 		"/>
		<polygon class="st0" points="123.8,31.1 121.3,29.2 121.8,28.6 121.1,28 116.4,34.2 117.1,34.7 115.2,37.3 110.7,33.9 112.7,31.4 
			113.3,31.9 118,25.7 117.3,25.2 116.8,25.8 114.3,23.9 116.7,20.7 126.2,27.9 		"/>
		<polygon class="st0" points="121.8,43.8 118,39.7 120.3,37.5 120.9,38.1 126.5,32.8 125.9,32.2 128.3,30 132.1,34.1 129.8,36.3 
			129.2,35.7 123.5,41 124.1,41.6 		"/>
		<polygon class="st0" points="132.6,50.9 133.2,52.2 134.1,51.7 134.8,53 132.8,54.1 130.4,49.7 131.6,49.1 131.9,49.6 136.2,47.2 
			136,46.7 137.1,46.1 138.4,48.4 137.2,49 136.9,48.6 		"/>
		<path class="st0" d="M133.9,56.7l-0.8-1.9l1.2-0.5l0.1,0.2l5-0.9l-0.1-0.3l1.3-0.5l0.9,2.1l-1.2,0.5l-0.1-0.2l-4.1,3.1l0.1,0.2
			l-1.2,0.5l-0.8-1.9l1.2-0.5l0.1,0.3l0.3-0.3l-0.4-1l-0.4,0.1l0.1,0.3L133.9,56.7z M136.7,56.1l1-0.7l-1.2,0.2L136.7,56.1z"/>
		<polygon class="st0" points="138.5,62.6 138.8,64 137.9,64.2 138.4,65.9 140.1,65.5 139.5,63 140,62.2 143,61.4 143.9,62 
			144.7,65.1 144.1,66.1 142.7,66.4 142.3,64.9 143.1,64.7 142.7,63 141.1,63.5 141.7,65.9 141.2,66.8 138.1,67.5 137.3,67 
			136.5,63.9 137.1,62.9 		"/>
		<polygon class="st0" points="138.2,72.2 137.8,69.7 139.1,69.5 139.2,70 144.1,69.3 144,68.8 143.1,68.9 142.9,67.7 145.1,67.4 
			145.9,72.3 143.7,72.6 143.5,71.4 144.4,71.2 144.3,70.8 139.4,71.5 139.5,72 		"/>
		<polygon class="st0" points="138.6,77.8 138.5,75.6 139.3,74.7 144.8,74.4 144.7,74 146.1,74 146.2,76 144.8,76.1 144.8,75.7 
			139.9,76 139.9,77.3 144.9,77.1 144.9,76.7 146.2,76.6 146.3,78.7 145,78.7 144.9,78.3 139.5,78.6 		"/>
		<path class="st0" d="M138.5,84.2l0.2-4.2l1.3,0v0.6l5,0.2v-0.6l1.4,0.1l-0.2,4.2l-0.8,0.8l-6.1-0.3L138.5,84.2z M144.8,83.7
			l0.1-1.4l-4.9-0.2l-0.1,1.4L144.8,83.7z"/>
		<polygon class="st0" points="137.7,90.8 138.4,85.9 139.7,86.1 139.7,86.7 144.6,87.4 144.7,86.8 146,87 145.3,92 143.1,91.6 
			143.3,90.2 144.1,90.3 144.3,88.8 142.6,88.6 142.4,89.7 141.1,89.5 141.3,88.4 139.4,88.1 139.2,89.6 140.2,89.8 140,91.2 		"/>
		<polygon class="st0" points="136.9,94.1 137.5,91.7 138.9,92 138.7,92.6 143.5,93.8 143.7,93.2 145,93.5 144.4,95.7 141,96 
			142.9,96.4 143,95.9 144.3,96.2 143.6,98.8 142.3,98.4 142.5,97.9 137.7,96.7 137.6,97.2 136.2,96.9 136.7,94.9 140.8,94.6 
			138.4,94 138.2,94.4 		"/>
		<polygon class="st0" points="134.7,101.1 135.6,98.7 136.9,99.2 136.7,99.7 141.3,101.4 141.5,100.9 140.6,100.6 141.1,99.4 
			143.2,100.2 141.5,104.9 139.4,104.1 139.8,102.9 140.6,103.2 140.8,102.8 136.2,101.1 136,101.6 		"/>
		<polygon class="st0" points="136,104 135.4,105.4 134.5,105 133.8,106.5 135.4,107.3 136.5,105.1 137.5,104.7 140.3,106.1 
			140.6,107 139.1,109.9 138.1,110.3 136.8,109.7 137.4,108.3 138.2,108.7 139,107.1 137.4,106.4 136.3,108.6 135.4,109 
			132.6,107.6 132.3,106.7 133.6,103.8 134.7,103.4 		"/>
		<polygon class="st0" points="136.8,111 138.4,111.9 137.4,113.6 135.9,112.7 135.4,110.8 136.6,111.5 		"/>
		<polygon class="st0" points="125.9,116.5 127.2,114.7 128.4,114.6 132.7,117.9 133,117.6 134,118.4 132.8,120 131.7,119.2 
			131.9,118.9 128,115.9 127.2,117 131.1,120 131.4,119.7 132.4,120.5 131.2,122.1 130.1,121.3 130.4,121 126,117.7 		"/>
		<polygon class="st0" points="122.9,120 124.6,118.1 125.6,119.1 125.2,119.5 128.8,122.9 129.2,122.4 130.2,123.4 128.7,125 
			125.5,123.6 127,124.9 127.3,124.5 128.3,125.4 126.5,127.3 125.5,126.4 125.9,126 122.3,122.6 121.9,123 120.9,122.1 
			122.3,120.6 126.1,122.3 124.2,120.6 123.9,120.9 		"/>
		<polygon class="st0" points="119.3,125.3 118.4,124.3 120.3,122.6 121.2,123.6 120.8,123.9 124.1,127.6 124.5,127.3 125.4,128.3 
			123.5,130 122.6,129 123,128.6 120.9,126.3 119.7,125 		"/>
		<path class="st0" d="M117.2,125.3l0.9,0.1l3.8,5l-0.1,1l-2.5,1.9l-1-0.1l-3.8-4.9l0.1-1L117.2,125.3z M119.1,131.8l1.3-1l-3-3.9
			l-1.3,1L119.1,131.8z"/>
		<polygon class="st0" points="111.2,129.6 113.3,128.3 114.1,129.5 113.6,129.8 116.2,134 116.7,133.7 117.4,134.8 115.5,136 
			112.9,133.8 113.9,135.4 114.3,135.2 115.1,136.3 112.8,137.6 112.1,136.5 112.6,136.2 110,132.1 109.5,132.3 108.8,131.2 
			110.5,130.1 113.7,132.7 112.3,130.6 111.9,130.8 		"/>
		<path class="st0" d="M101.1,134.8l3.9-1.6l0.5,1.2l-0.5,0.2l1.9,4.6l0.5-0.2l0.5,1.3l-4,1.6l-1.1-0.4l-2.4-5.7L101.1,134.8z
			 M104.2,140.3l1.3-0.6l-1.9-4.6l-1.3,0.5L104.2,140.3z"/>
		<polygon class="st0" points="94.7,136.9 99.5,135.4 99.9,136.7 99.4,136.8 100.8,141.6 101.3,141.4 101.7,142.7 96.9,144.2 
			96.3,142.1 97.7,141.6 97.9,142.4 99.4,142 98.8,140.3 97.8,140.6 97.4,139.4 98.5,139 97.9,137.3 96.5,137.7 96.8,138.7 
			95.4,139.1 		"/>
		<polygon class="st0" points="92.1,138.8 90.7,139.1 90.9,140.1 89.5,140.3 89,138 93.9,137.1 94.2,138.4 93.6,138.5 94.6,143.4 
			95.1,143.2 95.4,144.6 92.8,145.1 92.6,143.7 93.1,143.6 		"/>
		<path class="st0" d="M82,138.6l2.6-0.1v1.3h-0.5l0.2,4.9h0.6l0.1,1.4l-3.9,0.1l-0.8-0.7l-0.1-2.9l0.7-0.8l1.8-0.1l-0.1-1.8H82
			V138.6z M81.8,144.9h1l-0.1-1.7h-1L81.8,144.9z"/>
		<path class="st0" d="M78.5,138.7l0.6,0.6l-0.3,6.3l-0.8,0.7l-3.1-0.2l-0.7-0.8l0.3-6.2l0.7-0.7L78.5,138.7z M75.7,144.8l1.6,0.1
			l0.3-5l-1.6-0.1L75.7,144.8z"/>
		<polygon class="st0" points="71.3,139.4 69.9,139.2 69.8,140.2 68.3,140 68.7,137.7 73.6,138.4 73.4,139.7 72.8,139.6 72.1,144.6 
			72.6,144.6 72.4,146 69.9,145.6 70.1,144.2 70.6,144.3 		"/>
		<polygon class="st0" points="65,138.2 65.3,136.9 67.8,137.5 67.5,138.8 67,138.6 65.8,143.5 66.4,143.6 66.1,144.9 63.5,144.3 
			63.9,143 64.4,143.1 65.1,140.1 65.5,138.3 		"/>
		<polygon class="st0" points="60.8,135.6 63.3,136.3 62.9,137.6 62.4,137.4 60.9,142.2 61.3,142.3 61.6,141.4 62.8,141.8 
			62.1,143.9 57.4,142.4 58.1,140.3 59.2,140.7 59,141.6 59.4,141.7 60.9,137 60.4,136.8 		"/>
		<polygon class="st0" points="54.3,132.9 58.9,134.9 58.3,136.1 57.9,135.9 55.9,140.5 56.4,140.7 55.9,141.9 51.3,139.9 
			52.2,137.9 53.5,138.5 53.2,139.2 54.5,139.8 55.2,138.2 54.2,137.8 54.7,136.5 55.8,137 56.5,135.3 55.1,134.7 54.7,135.6 
			53.4,135.1 		"/>
		<polygon class="st0" points="49.5,133.3 48.2,132.6 49.1,130.9 50.1,130.6 52.9,132.2 53.2,133.2 50.2,138.7 49.3,138.9 
			46.3,137.3 46.1,136.4 46.8,135.1 48.1,135.8 47.7,136.5 49.2,137.3 51.6,133 50.1,132.2 		"/>
		<polygon class="st0" points="46.7,128.4 48.7,129.8 47.9,131 47.5,130.6 44.7,134.7 45.2,135 44.4,136.1 42.6,134.9 43.5,131.6 
			42.4,133.2 42.8,133.5 42.1,134.6 40,133.1 40.7,132 41.2,132.3 44,128.2 43.5,127.9 44.3,126.8 46,127.9 44.8,131.9 46.3,129.8 
			45.9,129.5 		"/>
		<polygon class="st0" points="40.8,125.7 41.7,124.6 43.7,126.3 42.8,127.3 42.4,126.9 39.2,130.8 39.7,131.1 38.8,132.2 
			36.8,130.5 37.7,129.5 38.1,129.8 40.1,127.4 41.2,126 		"/>
		<polygon class="st0" points="36.8,123.8 35.7,122.7 37.1,121.3 38.1,121.3 40.5,123.6 40.5,124.6 36.1,129.1 35.2,129.1 
			32.8,126.8 32.8,125.8 33.8,124.8 34.9,125.8 34.3,126.4 35.6,127.6 39,124 37.8,122.8 		"/>
		<path class="st0" d="M36.6,119.7l-0.1,0.9l-4.8,4.1l-1-0.1l-2-2.4l0.1-1l4.7-4.1l1,0.1L36.6,119.7z M30.2,122l1.1,1.2l3.7-3.3
			l-1-1.2L30.2,122z"/>
		<path class="st0" d="M207.7,74.8v3.1c0,9.9,2.8,16.3,14.1,16.3c6.5,0,12.7-4.2,12.7-13c0-9.6-4.9-13.2-19-18.1
			c-19-6.5-27.7-14.4-27.7-32c0-20.6,12.6-31.1,32.7-31.1c19,0,32.7,8.1,32.7,28.4v3h-20.4c0-9.9-3.4-15.7-11.6-15.7
			c-9.6,0-12.1,6.1-12.1,12.3c0,6.5,1.9,10.5,11,14.4l16.4,7.1c16,7,20.1,15.1,20.1,28c0,22.4-13.6,32.4-36.7,32.4
			c-24.1,0-33.6-11.3-33.6-30.8v-4.3L207.7,74.8z"/>
		<polygon class="st0" points="283.2,2.1 298.2,80.3 298.6,80.3 314.3,2.1 336.4,2.1 312.1,107.8 284.7,107.8 260.4,2.1 		"/>
		<path class="st0" d="M378,0c32,0,36,22.8,36,55s-4,55-36,55s-36-22.9-36-55S346,0,378,0 M378,94.2c12.6,0,14.7-10.8,14.7-39.2
			s-2.1-39.2-14.7-39.2s-14.7,11-14.7,39.2S365.4,94.2,378,94.2"/>
		<polygon class="st0" points="426.6,107.8 426.6,2.1 447.9,2.1 447.9,90.3 485.7,90.3 485.7,107.8 		"/>
		<polygon class="st0" points="546.1,2.1 546.1,19.5 523,19.5 523,107.8 501.7,107.8 501.7,19.5 478.6,19.5 478.6,2.1 		"/>
		<path class="st0" d="M567.7,2.1h26.4l28,105.8h-22.2L595,85.5h-28.2l-4.8,22.4h-22.3L567.7,2.1z M570.5,68h20.7l-10.2-47.6h-0.3
			L570.5,68z"/>
		<path class="st0" d="M646.7,74.8v3.1c0,9.9,2.8,16.3,14.1,16.3c6.5,0,12.7-4.2,12.7-13c0-9.6-4.9-13.2-19-18.1
			c-19-6.5-27.7-14.4-27.7-32c0-20.6,12.6-31.1,32.7-31.1c19,0,32.7,8.1,32.7,28.4v3h-20.4c0-9.9-3.4-15.7-11.5-15.7
			c-9.6,0-12.2,6.1-12.2,12.3c0,6.5,1.9,10.5,11,14.4l16.4,7.1c16,7,20.1,15.1,20.1,28c0,22.4-13.6,32.4-36.7,32.4
			c-24.1,0-33.6-11.3-33.6-30.8v-4.3L646.7,74.8z"/>
		<polygon class="st0" points="768.3,2.1 768.3,19.5 745.2,19.5 745.2,107.8 723.8,107.8 723.8,19.5 700.7,19.5 700.7,2.1 		"/>
		<path class="st0" d="M797.4,2.1v73.8c0,10.5,2.5,18.4,12.4,18.4s12.4-7.8,12.4-18.4V2.1h21.3v73.8c0,27-16.4,34.1-33.8,34.1
			s-33.8-5.8-33.8-34.1V2.1H797.4z"/>
		<path class="st0" d="M858.2,2.1h35c29.6,0,35,20.3,35,51.4c0,37.5-8,54.4-36.3,54.4h-33.7V2.1z M879.5,92.1h9.5
			c14.8,0,17.8-9.3,17.8-38.1c0-24-1.9-36.3-18.2-36.3h-9L879.5,92.1z"/>
		<polygon class="st0" points="1001.2,2.1 1001.2,19.5 963.5,19.5 963.5,44.4 999,44.4 999,61.9 963.5,61.9 963.5,90.3 1002.7,90.3 
			1002.7,107.8 942.1,107.8 942.1,2.1 		"/>
		<polygon class="st0" points="1037.9,2.1 1063.7,74.5 1064,74.5 1064,2.1 1083.6,2.1 1083.6,107.8 1059.3,107.8 1033.2,33.8 
			1032.9,33.8 1032.9,107.8 1013.4,107.8 1013.4,2.1 		"/>
		<polygon class="st0" points="1160.3,2.1 1160.3,19.5 1137.2,19.5 1137.2,107.8 1115.8,107.8 1115.8,19.5 1092.8,19.5 1092.8,2.1 
					"/>
		<rect x="1170.5" y="2.1" class="st0" width="21.3" height="105.8"/>
		<polygon class="st0" points="185.6,159.7 185.6,123.7 192.9,123.7 192.9,153.7 205.7,153.7 205.7,159.7 		"/>
		<path class="st0" d="M215.9,123.7h9l9.5,36h-7.6l-1.7-7.6h-9.6l-1.7,7.6h-7.6L215.9,123.7z M216.9,146.1h7.1l-3.5-16.1h-0.1
			L216.9,146.1z"/>
		<path class="st0" d="M254.9,148.4v1.1c0,3.4,1,5.5,4.8,5.5c2.3,0.1,4.2-1.6,4.3-3.9c0-0.2,0-0.3,0-0.5c0-3.3-1.7-4.5-6.4-6.1
			c-6.4-2.2-9.4-4.9-9.4-10.9c0-7,4.3-10.6,11.1-10.6c6.4,0,11.1,2.8,11.1,9.7v1h-6.9c0-3.4-1.2-5.3-3.9-5.3c-3.3,0-4.1,2.1-4.1,4.2
			s0.7,3.6,3.7,4.9l5.6,2.4c5.4,2.4,6.8,5.1,6.8,9.5c0,7.6-4.6,11-12.5,11c-8.2,0-11.4-3.8-11.4-10.5v-1.5L254.9,148.4z"/>
		<polygon class="st0" points="296.2,123.7 296.2,129.6 288.3,129.6 288.3,159.7 281.1,159.7 281.1,129.6 273.2,129.6 273.2,123.7 
					"/>
		<path class="st0" d="M306.1,123.7v25.1c0,3.6,0.9,6.2,4.2,6.2s4.2-2.7,4.2-6.2v-25.1h7.2v25.1c0,9.2-5.6,11.6-11.5,11.6
			s-11.5-2-11.5-11.6v-25.1H306.1z"/>
		<path class="st0" d="M326.8,123.7h11.9c10.1,0,11.9,6.9,11.9,17.5c0,12.7-2.7,18.5-12.3,18.5h-11.4V123.7z M334,154.3h3.2
			c5,0,6-3.2,6-12.9c0-8.2-0.7-12.3-6.2-12.3h-3V154.3z"/>
		<polygon class="st0" points="375.4,123.7 375.4,129.6 362.6,129.6 362.6,138.1 374.6,138.1 374.6,144.1 362.6,144.1 362.6,153.7 
			375.9,153.7 375.9,159.7 355.3,159.7 355.3,123.7 		"/>
		<polygon class="st0" points="387.9,123.7 396.6,148.3 396.8,148.3 396.8,123.7 403.4,123.7 403.4,159.7 395.1,159.7 386.3,134.5 
			386.2,134.5 386.2,159.7 379.5,159.7 379.5,123.7 		"/>
		<polygon class="st0" points="429.5,123.7 429.5,129.6 421.6,129.6 421.6,159.7 414.4,159.7 414.4,129.6 406.5,129.6 406.5,123.7 
					"/>
		<path class="st0" d="M438.5,148.4v1.1c0,3.4,1,5.5,4.8,5.5c2.3,0.1,4.2-1.6,4.3-3.9c0-0.2,0-0.3,0-0.5c0-3.3-1.7-4.5-6.4-6.1
			c-6.4-2.2-9.4-4.9-9.4-10.9c0-7,4.3-10.6,11.1-10.6c6.5,0,11.1,2.8,11.1,9.7v1h-7c0-3.4-1.2-5.3-3.9-5.3c-3.3,0-4.1,2.1-4.1,4.2
			s0.7,3.6,3.7,4.9l5.6,2.4c5.4,2.4,6.8,5.1,6.8,9.5c0,7.6-4.6,11-12.5,11c-8.2,0-11.4-3.8-11.4-10.5v-1.5L438.5,148.4z"/>
		<path class="st0" d="M466.1,130.3c0,5.3-1.3,9.1-6.6,9.6v-3.5c1.8-0.3,2.6-2.1,2.6-4v-0.8h-2.6v-7.9h6.6V130.3z"/>
		<path class="st0" d="M490.7,123.7v25.1c0,3.6,0.9,6.2,4.2,6.2s4.2-2.7,4.2-6.2v-25.1h7.2v25.1c0,9.2-5.6,11.6-11.5,11.6
			s-11.5-2-11.5-11.6v-25.1H490.7z"/>
		<polygon class="st0" points="519.4,123.7 528.1,148.3 528.2,148.3 528.2,123.7 534.9,123.7 534.9,159.7 526.6,159.7 517.8,134.5 
			517.7,134.5 517.7,159.7 511,159.7 511,123.7 		"/>
		<rect x="540.3" y="123.7" class="st0" width="7.2" height="35.9"/>
		<path class="st0" d="M564.4,123c10.9,0,12.2,7.8,12.2,18.7s-1.4,18.7-12.2,18.7s-12.2-7.8-12.2-18.7S553.5,123,564.4,123
			 M564.4,155c4.3,0,5-3.7,5-13.3s-0.7-13.3-5-13.3s-5,3.7-5,13.3S560.1,155,564.4,155"/>
		<polygon class="st0" points="589.3,123.7 598,148.3 598.1,148.3 598.1,123.7 604.8,123.7 604.8,159.7 596.5,159.7 587.7,134.5 
			587.5,134.5 587.5,159.7 580.9,159.7 580.9,123.7 		"/>
		<path class="st0" d="M622.2,123.7h11.9c10.1,0,11.9,6.9,11.9,17.5c0,12.7-2.7,18.5-12.3,18.5h-11.4V123.7z M629.5,154.3h3.2
			c5,0,6-3.2,6-12.9c0-8.2-0.7-12.3-6.2-12.3h-3V154.3z"/>
		<polygon class="st0" points="670.9,123.7 670.9,129.6 658,129.6 658,138.1 670.1,138.1 670.1,144.1 658,144.1 658,153.7 
			671.4,153.7 671.4,159.7 650.8,159.7 650.8,123.7 		"/>
		<polygon class="st0" points="675,159.7 675,123.7 682.3,123.7 682.3,153.7 695.1,153.7 695.1,159.7 		"/>
		<path class="st0" d="M710.4,123.7h12.7c7.3,0,9.9,5.4,9.9,10.8c0,7.5-4.6,10.8-11.4,10.8h-3.9v14.3h-7.2V123.7z M717.7,140h3.2
			c2.9,0,4.8-1.7,4.8-5.4c0-3.5-1.4-5.5-5-5.5h-3L717.7,140z"/>
		<path class="st0" d="M748,123c10.9,0,12.2,7.8,12.2,18.7s-1.3,18.7-12.2,18.7s-12.2-7.8-12.2-18.7S737.2,123,748,123 M748,155
			c4.3,0,5-3.7,5-13.3s-0.7-13.3-5-13.3s-5,3.7-5,13.3S743.7,155,748,155"/>
		<polygon class="st0" points="764.5,159.7 764.5,123.7 771.8,123.7 771.8,153.7 784.6,153.7 784.6,159.7 		"/>
		<rect x="788.2" y="123.7" class="st0" width="7.2" height="35.9"/>
		<polygon class="st0" points="821.9,123.7 821.9,129.6 814,129.6 814,159.7 806.8,159.7 806.8,129.6 798.9,129.6 798.9,123.7 		"/>
		<polygon class="st0" points="845.1,123.7 845.1,129.6 832.3,129.6 832.3,138.1 844.4,138.1 844.4,144.1 832.3,144.1 832.3,153.7 
			845.6,153.7 845.6,159.7 825,159.7 825,123.7 		"/>
		<path class="st0" d="M864.6,135.8c0-5.2-1.1-7.5-4.3-7.5c-3.7,0-4.5,3.7-4.5,13.9c0,10.9,1.5,12.8,4.6,12.8c2.6,0,4.5-1.4,4.5-9.1
			h7.2c0,7.8-1.9,14.4-11.4,14.4c-10.9,0-12.2-7.8-12.2-18.7s1.4-18.7,12.2-18.7c10.4,0,11.1,7.6,11.1,12.8L864.6,135.8z"/>
		<polygon class="st0" points="884.6,123.7 893.4,148.3 893.5,148.3 893.5,123.7 900.1,123.7 900.1,159.7 891.9,159.7 883,134.5 
			882.9,134.5 882.9,159.7 876.3,159.7 876.3,123.7 		"/>
		<rect x="905.5" y="123.7" class="st0" width="7.2" height="35.9"/>
		<path class="st0" d="M933.5,135.8c0-5.2-1.1-7.5-4.3-7.5c-3.7,0-4.5,3.7-4.5,13.9c0,10.9,1.5,12.8,4.6,12.8c2.6,0,4.5-1.4,4.5-9.1
			h7.2c0,7.8-1.9,14.4-11.4,14.4c-10.9,0-12.2-7.8-12.2-18.7s1.4-18.7,12.2-18.7c10.4,0,11.1,7.6,11.1,12.8L933.5,135.8z"/>
		<path class="st0" d="M956.7,123c10.9,0,12.2,7.8,12.2,18.7s-1.4,18.7-12.2,18.7s-12.2-7.8-12.2-18.7S945.8,123,956.7,123
			 M956.7,155c4.3,0,5-3.7,5-13.3s-0.7-13.3-5-13.3s-5,3.7-5,13.3S952.4,155,956.7,155"/>
		<path class="st0" d="M985.7,123.7h11.9c10.1,0,11.9,6.9,11.9,17.5c0,12.7-2.7,18.5-12.3,18.5h-11.4V123.7z M992.9,154.3h3.2
			c5,0,6-3.2,6-12.9c0-8.2-0.7-12.3-6.2-12.3h-3V154.3z"/>
		<rect x="1014.6" y="123.7" class="st0" width="7.2" height="35.9"/>
		<polygon class="st0" points="1039.4,123.7 1050.2,123.7 1055.3,149.1 1055.4,149.1 1060.6,123.7 1071.3,123.7 1071.3,159.7 
			1064.7,159.7 1064.7,131 1064.6,131 1058.2,159.7 1052.6,159.7 1046.2,131 1046.1,131 1046.1,159.7 1039.4,159.7 		"/>
		<rect x="1076.9" y="123.7" class="st0" width="7.2" height="35.9"/>
		<polygon class="st0" points="1089.5,159.7 1089.5,123.7 1096.8,123.7 1096.8,153.7 1109.6,153.7 1109.6,159.7 		"/>
		<path class="st0" d="M1119.8,123.7h9l9.5,36h-7.6l-1.7-7.6h-9.6l-1.7,7.6h-7.6L1119.8,123.7z M1120.8,146.1h7l-3.5-16.1h-0.1
			L1120.8,146.1z"/>
		<polygon class="st0" points="1149.2,123.7 1158,148.3 1158.1,148.3 1158.1,123.7 1164.7,123.7 1164.7,159.7 1156.4,159.7 
			1147.6,134.5 1147.5,134.5 1147.5,159.7 1140.8,159.7 1140.8,123.7 		"/>
		<path class="st0" d="M1181.2,123c10.9,0,12.2,7.8,12.2,18.7s-1.4,18.7-12.2,18.7s-12.2-7.7-12.2-18.7S1170.4,123,1181.2,123
			 M1181.2,155c4.3,0,5-3.7,5-13.3s-0.7-13.3-5-13.3s-5,3.7-5,13.3S1176.9,155,1181.2,155"/>
	</g>
</g>
</svg>
