<?xml version="1.0" encoding="utf-8"?>
<svg version="1.1" id="Layer_1" xmlns="http://www.w3.org/2000/svg" xmlns:xlink="http://www.w3.org/1999/xlink" x="0px" y="0px"
	 viewBox="0 0 100 100" style="enable-background:new 0 0 100 100;" xml:space="preserve">
<g>
	<path style="fill: #FF6600" d="M61.7,19.53H38.31c-10.37,0-18.78,8.41-18.78,18.78V61.7c0,10.37,8.41,18.78,18.78,18.78H61.7
		c10.37,0,18.77-8.4,18.77-18.78V38.3C80.47,27.94,72.06,19.53,61.7,19.53z M51.01,70c-10.97,0-19.87-8.9-19.87-19.86
		c0-10.97,8.89-19.86,19.87-19.86c10.97,0,19.86,8.89,19.86,19.86C70.88,61.1,61.98,70,51.01,70z M69.5,35.01
		c-2.79,0-5.05-2.26-5.05-5.05c0-2.79,2.26-5.05,5.05-5.05c2.79,0,5.05,2.27,5.05,5.05C74.55,32.75,72.29,35.01,69.5,35.01z"/>
	<path style="fill: #FF6600" d="M51.01,38.18c-6.61,0-11.95,5.35-11.95,11.95c0,6.6,5.35,11.95,11.95,11.95c6.6,0,11.95-5.35,11.95-11.95
		C62.96,43.53,57.61,38.18,51.01,38.18z"/>
	<path style="fill: #FF6600" d="M79.46,0H20.54C9.19,0,0,9.2,0,20.54v58.92C0,90.8,9.19,100,20.54,100h58.92C90.8,100,100,90.8,100,79.46
		V20.54C100,9.2,90.8,0,79.46,0z M87.71,64.47c0,12.83-10.4,23.23-23.24,23.23H35.53c-12.83,0-23.24-10.4-23.24-23.23V35.53
		c0-12.84,10.4-23.24,23.24-23.24h28.94c12.83,0,23.24,10.4,23.24,23.24V64.47z"/>
</g>
</svg>
