<?xml version="1.0" encoding="utf-8"?>
<svg version="1.1" id="Layer_1" xmlns="http://www.w3.org/2000/svg" xmlns:xlink="http://www.w3.org/1999/xlink" x="0px" y="0px"
	 viewBox="0 0 100 100" style="enable-background:new 0 0 100 100;" xml:space="preserve">
<g>
	<path style="fill: #FF6600" d="M36.39,26.79V43.3v16.51h4.93h4.93v3.87v3.89l3.89-3.89l3.87-3.87h4.43h4.43l4.39-4.39l4.37-4.37V38.91V26.79
		H54.02H36.39z M52.75,41.09l-0.06,6.44h-1.99h-2.01v-6.44v-6.44h2.07h2.05L52.75,41.09z M60.56,41.09v-6.44h2.11h2.11v6.44v6.44
		h-2.11h-2.11V41.09z"/>
	<path style="fill: #FF6600" d="M79.46,0H20.54C9.2,0,0,9.19,0,20.54v58.92C0,90.8,9.2,100,20.54,100h58.92C90.8,100,100,90.8,100,79.46V20.54
		C100,9.19,90.8,0,79.46,0z M75.87,37.84v15.27l-9.91,9.91l-9.89,9.89h-4.35h-4.35l-5.38,5.38l-5.4,5.4v-5.4v-5.38h-6.65H23.3V53.19
		V33.47l5.4-5.44l5.38-5.44l20.91-0.02l20.89-0.02V37.84z"/>
</g>
</svg>
