<?xml version="1.0" encoding="utf-8"?>
<svg version="1.1" id="Layer_1" xmlns="http://www.w3.org/2000/svg" xmlns:xlink="http://www.w3.org/1999/xlink" x="0px" y="0px"
	 viewBox="0 0 100 100" style="enable-background:new 0 0 100 100;" xml:space="preserve">
<path style="fill: #FF6600" d="M79.46,0H20.54C9.2,0,0,9.2,0,20.55v58.92C0,90.8,9.2,100,20.54,100h58.91C90.8,100,100,90.8,100,79.46V20.55
	C100,9.2,90.8,0,79.46,0z M78.7,36.47c0.03,0.61,0.04,1.23,0.04,1.85c0,18.88-14.37,40.66-40.65,40.66c-8.07,0-15.58-2.37-21.9-6.42
	c1.12,0.13,2.26,0.2,3.41,0.2c6.7,0,12.86-2.28,17.75-6.12c-6.25-0.12-11.52-4.25-13.35-9.93c0.87,0.17,1.76,0.26,2.69,0.26
	c1.3,0,2.57-0.18,3.76-0.5c-6.53-1.31-11.46-7.08-11.46-14.01c0-0.06,0-0.12,0-0.18c1.92,1.07,4.13,1.72,6.47,1.79
	c-3.84-2.56-6.36-6.94-6.36-11.9c0-2.62,0.71-5.07,1.93-7.18c7.04,8.64,17.58,14.33,29.45,14.93c-0.24-1.06-0.37-2.14-0.37-3.26
	c0-7.88,6.39-14.28,14.28-14.28c4.11,0,7.82,1.74,10.43,4.52c3.25-0.64,6.32-1.84,9.07-3.47c-1.07,3.33-3.33,6.13-6.28,7.9
	c2.89-0.35,5.64-1.11,8.2-2.25C83.92,31.94,81.5,34.46,78.7,36.47z"/>
<g>
</svg>
