<?xml version="1.0" encoding="utf-8"?>
<svg version="1.1" id="Layer_1" xmlns="http://www.w3.org/2000/svg" xmlns:xlink="http://www.w3.org/1999/xlink" x="0px" y="0px"
	 viewBox="0 0 100 100" style="enable-background:new 0 0 100 100;" xml:space="preserve">
<g>
	<path style="fill: #FF6600" d="M51.09,19.47c-16.74,0-30.32,13.57-30.32,30.32c0,6.4,1.99,12.34,5.38,17.24l-2.66,10.74l10.42-3
		c4.88,3.37,10.8,5.34,17.18,5.34c16.75,0,30.32-13.58,30.32-30.32C81.41,33.04,67.83,19.47,51.09,19.47z M68.18,63.16
		c-2.07,4.69-9.78,3.58-9.78,3.58c-21.5-4-25.77-23.43-25.77-23.43c-2.21-6.89,4.96-10.34,4.96-10.34c1.23-0.59,2.79-0.39,3.69,0.58
		c0.67,0.71,1.27,2.41,1.73,3.63c0.26,0.67,0.52,1.33,0.78,2c0.4,1.04,0.81,2.17,0.76,3.31c-0.05,1.19-1.12,1.98-1.83,2.81
		c-0.42,0.49-0.84,0.97-1.27,1.46c2.89,8.13,13.78,12.12,13.78,12.12c0.84-0.88,1.7-1.75,2.53-2.64c0.64-0.69,1.32-1.55,2.26-1.81
		c1.29-0.35,2.58,0.46,3.7,1.01c1.29,0.64,2.3,1.25,3.43,1.89c0.88,0.51,1.63,1.21,1.71,2.28C68.92,60.72,68.62,62.15,68.18,63.16z"
		/>
	<path style="fill: #FF6600" d="M79.46,0H20.54C9.2,0,0,9.2,0,20.54v58.92C0,90.8,9.2,100,20.54,100h58.92C90.81,100,100,90.8,100,79.46V20.54
		C100,9.2,90.81,0,79.46,0z M50.67,86.18c-6.42,0-12.46-1.67-17.7-4.58l-18.3,5.27l4.6-18.57c-3.25-5.46-5.12-11.83-5.12-18.65
		c0-20.17,16.35-36.52,36.52-36.52c20.17,0,36.52,16.35,36.52,36.52C87.19,69.82,70.84,86.18,50.67,86.18z"/>
</g>
</svg>
