<?xml version="1.0" encoding="utf-8"?>
<!-- Generator: Adobe Illustrator 25.0.1, SVG Export Plug-In . SVG Version: 6.00 Build 0)  -->
<svg version="1.1" id="Layer_1" xmlns="http://www.w3.org/2000/svg" xmlns:xlink="http://www.w3.org/1999/xlink" x="0px" y="0px"
	 viewBox="0 0 100 100" style="enable-background:new 0 0 100 100;" xml:space="preserve">
<style type="text/css">
	.st0{fill:#FF6600;}
</style>
<path class="st0" d="M79.46,0H20.54C9.2,0,0,9.2,0,20.54v58.92C0,90.81,9.2,100,20.54,100h58.92C90.81,100,100,90.81,100,79.46
	V20.54C100,9.2,90.81,0,79.46,0z M29.99,86.14H14.99V37.86h15.01V86.14z M22.49,31.26c-4.81,0-8.7-3.89-8.7-8.69
	c0-4.81,3.89-8.71,8.7-8.71c4.8,0,8.69,3.9,8.69,8.71C31.19,27.37,27.29,31.26,22.49,31.26z M86.21,86.14h-15V62.66
	c0-5.6-0.1-12.81-7.8-12.81c-7.81,0-9,6.11-9,12.4v23.88h-15V37.86h14.4v6.61h0.21c2-3.8,6.9-7.8,14.2-7.8c15.2,0,18,10,18,22.99
	V86.14z"/>
<g>
</g>
<g>
</g>
<g>
</g>
<g>
</g>
<g>
</g>
</svg>
