<?xml version="1.0" encoding="utf-8"?>
<!-- Generator: Adobe Illustrator 25.0.1, SVG Export Plug-In . SVG Version: 6.00 Build 0)  -->
<svg version="1.1" id="Layer_1" xmlns="http://www.w3.org/2000/svg" xmlns:xlink="http://www.w3.org/1999/xlink" x="0px" y="0px"
	 viewBox="0 0 100 100" style="enable-background:new 0 0 100 100;" xml:space="preserve">
<style type="text/css">
	.st0{fill:#FF6600;}
</style>
<g>
	<g>
		<polygon class="st0" points="42.47,61.12 62.94,50.44 42.47,39.75 		"/>
		<path class="st0" d="M79.46,0H20.54C9.2,0,0,9.19,0,20.54v58.92C0,90.8,9.2,100,20.54,100h58.92C90.8,100,100,90.8,100,79.46
			V20.54C100,9.19,90.8,0,79.46,0z M87.58,59.07c0,9.47-3.24,17.15-12.71,17.15H26.14c-9.47,0-13.72-7.68-13.72-17.15V40.93
			c0-9.47,3.85-17.15,13.32-17.15h49.53c9.47,0,12.31,7.68,12.31,17.15V59.07z"/>
	</g>
</g>
<g>
</g>
<g>
</g>
<g>
</g>
<g>
</g>
<g>
</g>
</svg>
