<?xml version="1.0" encoding="utf-8"?>
<svg version="1.1" id="Layer_1" xmlns="http://www.w3.org/2000/svg" xmlns:xlink="http://www.w3.org/1999/xlink" x="0px" y="0px"
	 viewBox="0 0 100 100" style="enable-background:new 0 0 100 100;" xml:space="preserve">
	<path style="fill: #FFFFFF" d="M79.46,0H20.54C9.2,0,0,9.2,0,20.54v58.92C0,90.8,9.2,100,20.54,100h33.68V60.22H40.56v-15.4h13.66V33.95h0
	c0.06-10.42,3.83-13.98,3.83-13.98c5.54-7.2,14.23-6.99,14.23-6.99h2.37h11.46v14.5h-9.22c-6.33-0.11-6.87,5.25-6.91,6.46h0v10.87
	h15.45l-1.89,15.4H69.98V100h9.48C90.8,100,100,90.8,100,79.46V20.54C100,9.2,90.8,0,79.46,0z"/>
</svg>
