<?xml version="1.0" encoding="utf-8"?>
<svg version="1.1" id="Layer_1" xmlns="http://www.w3.org/2000/svg" xmlns:xlink="http://www.w3.org/1999/xlink" x="0px" y="0px"
	 viewBox="0 0 100 100" style="enable-background:new 0 0 100 100;" xml:space="preserve">
<path style="fill: #FFFFFF" d="M79.46,0H20.54C9.2,0,0,9.2,0,20.55v58.92C0,90.8,9.2,100,20.54,100h58.91C90.8,100,100,90.8,100,79.46V20.55
	C100,9.2,90.8,0,79.46,0z M84.07,50.53c0,6.52-0.01,13.72-0.02,16c-0.02,4.06-0.02,4.15-0.11,4.45c-0.45,1.6-1.55,2.76-3.04,3.23
	c-0.68,0.21-0.3,0.21-12.45,0.18c-6.24-0.01-15.98-0.03-21.65-0.05c-21.37-0.04-26.76-0.07-27.09-0.11c-1.1-0.14-2.2-0.8-2.89-1.72
	c-0.28-0.38-0.59-0.96-0.72-1.35c-0.19-0.59-0.19-0.68-0.19-4.19c0-1.83,0.01-8.77,0.02-15.42c0.01-6.66,0.02-12.31,0.03-12.57
	c0.01-0.26,0.03-0.46,0.06-0.46c0.06,0,0.16,0.05,1.06,0.62c0.84,0.52,2.45,1.52,3.24,2c0.23,0.14,0.72,0.44,1.09,0.68
	c0.38,0.23,1.33,0.82,2.12,1.31c1.68,1.03,3.11,1.92,3.32,2.05c0.08,0.05,0.39,0.24,0.68,0.42c0.3,0.18,0.83,0.51,1.2,0.74
	c0.36,0.23,1.27,0.79,2.02,1.25c0.75,0.46,1.46,0.89,1.57,0.97c0.12,0.07,0.38,0.24,0.6,0.37c0.21,0.13,0.53,0.33,0.7,0.43
	c0.17,0.11,0.9,0.56,1.63,1.01c0.73,0.45,1.65,1.02,2.06,1.27c0.41,0.25,0.99,0.61,1.3,0.8c0.31,0.19,0.82,0.51,1.15,0.71
	c0.68,0.42,1.96,1.22,3.22,1.99c0.49,0.3,1.39,0.86,2,1.24c0.61,0.38,1.39,0.86,1.73,1.07c0.34,0.21,0.85,0.52,1.13,0.7
	c0.93,0.58,1.4,0.74,2.17,0.74c0.32,0,0.54-0.02,0.74-0.08c0.54-0.15,0.59-0.17,2.76-1.51c0.45-0.28,1.15-0.71,1.55-0.95
	c0.4-0.24,0.97-0.59,1.28-0.78c0.31-0.19,0.76-0.47,1.01-0.62c0.25-0.15,1.15-0.7,2-1.22c2.44-1.5,3.89-2.39,4.56-2.8
	c0.34-0.21,1.39-0.85,2.33-1.43c0.94-0.58,1.98-1.22,2.31-1.41c0.55-0.33,0.92-0.56,1.28-0.78c0.08-0.05,0.59-0.37,1.13-0.7
	c0.54-0.34,1.28-0.79,1.63-1.01c0.35-0.22,0.94-0.59,1.32-0.81c0.87-0.52,3.03-1.85,3.22-1.97c0.15-0.1,1.01-0.63,3.94-2.41
	c0.98-0.59,2.01-1.23,2.31-1.41c0.29-0.19,0.57-0.33,0.62-0.33l0.08,0V50.53z M84.03,30.82c-0.08,0.07-0.61,0.4-1.4,0.87
	c-0.23,0.14-0.74,0.45-1.13,0.69c-1.88,1.16-3.03,1.86-5.01,3.07c-3.54,2.17-3.41,2.08-5.22,3.2c-0.42,0.26-1.15,0.71-1.63,1
	c-0.47,0.29-1.02,0.62-1.22,0.74c-0.19,0.12-0.68,0.42-1.07,0.66c-0.4,0.25-1.44,0.88-2.31,1.41c-0.87,0.53-2.2,1.34-2.95,1.8
	c-0.75,0.46-1.92,1.18-2.6,1.59c-0.68,0.42-1.87,1.15-2.64,1.62c-1.17,0.72-5.46,3.35-6.48,3.98c-0.16,0.09-0.33,0.18-0.39,0.18
	c-0.05,0-0.41-0.2-0.8-0.44c-2.24-1.39-5.31-3.3-5.47-3.39c-0.1-0.06-0.48-0.3-0.85-0.52c-0.87-0.54-5.94-3.68-7.93-4.91
	c-0.86-0.53-1.29-0.8-2.16-1.33c-0.49-0.31-1.09-0.68-1.34-0.83c-0.25-0.15-1.49-0.92-2.76-1.71c-1.27-0.79-2.39-1.48-2.49-1.55
	c-0.1-0.06-0.54-0.33-0.97-0.6c-0.43-0.27-1.93-1.2-3.34-2.06c-2.75-1.7-4.24-2.61-5.27-3.26l-0.66-0.41l0.03-0.61
	c0.07-1.55,0.67-2.73,1.84-3.6c0.52-0.38,1.29-0.7,2.02-0.81c0.13-0.02,10.74-0.02,23.94-0.02c29.86,0.02,36.07,0.04,36.5,0.1
	c0.93,0.13,1.93,0.65,2.57,1.34c0.45,0.47,0.77,1.01,0.97,1.59c0.16,0.49,0.23,0.86,0.26,1.52C84.1,30.71,84.1,30.76,84.03,30.82z"
	/>
<g>
</svg>
