<?xml version="1.0" encoding="utf-8"?>
<svg version="1.1" id="Layer_1" xmlns="http://www.w3.org/2000/svg" xmlns:xlink="http://www.w3.org/1999/xlink" x="0px" y="0px"
	 viewBox="0 0 100 100" style="enable-background:new 0 0 100 100;" xml:space="preserve">
<g>
	<path style="fill: #FFFFFF" d="M79.46,0H20.54C9.2,0,0,9.2,0,20.54v58.92C0,90.81,9.2,100,20.54,100h58.92C90.8,100,100,90.81,100,79.46
		V20.54C100,9.2,90.8,0,79.46,0z M50,83.59c-3.46,0-6.8-0.52-9.94-1.5c-0.37,0.49-0.88,0.99-1.47,0.68c-0.5-0.27-0.71-0.96-0.85-1.5
		C25.26,76.37,16.41,64.23,16.41,50c0-18.55,15.04-33.59,33.58-33.59c18.55,0,33.59,15.03,33.59,33.59
		C83.59,68.55,68.55,83.59,50,83.59z"/>
	<path style="fill: #FFFFFF" d="M43.69,74.93c0.54-1.53,0.96-3.11,1.37-4.68c0.14-0.55,0.94-3.41,1.2-4.54c2.78,3.19,7.4,4.38,11.44,3.14
		c0.84-0.25,1.67-0.55,2.47-0.9c1.57-0.68,3.04-1.56,4.3-2.72c3.61-3.29,5.57-7.43,6.48-12.14c1.18-6.12,0.11-11.83-3.76-16.74
		c-2.35-2.98-5.67-4.94-9.21-6.18c-4.81-1.68-10.2-1.88-15.06-0.31c-1.39,0.45-2.79,1.06-4.07,1.78c-4.55,2.59-8.05,6.75-9.48,11.81
		c-0.38,1.35-0.61,2.76-0.74,4.15c-0.32,3.38,0.42,6.72,1.95,9.72c0.24,0.48,0.55,0.91,0.77,1.39c0.54,1.14,1.36,2.28,2.37,3.05
		c0.47,0.36,1.04,0.68,1.65,0.63c0.85-0.06,1.06-0.87,1.29-1.57c0.26-0.77,0.34-1.59,0.51-2.38c0.15-0.72,0.17-1.16-0.28-1.8
		c-3.57-5.06-2.34-13.27,2.05-17.37c3.98-3.72,8.5-4.8,13.56-4.09c4.51,0.64,8.53,3.6,10.3,7.85c0.72,1.74,0.95,4.1,0.98,5.96
		c0.04,2.67-0.38,5.06-1.42,7.55c-0.88,2.13-2.21,4.19-4.07,5.6c-2.74,2.07-8.49,2.96-9.65-1.34c-0.29-1.06-0.32-2.43-0.11-3.51
		c0.54-2.7,1.58-5.27,2.2-7.94c0.33-1.43,0.55-2.86,0.16-4.32c-0.46-1.72-1.52-2.83-3.31-3.07c-1.9-0.26-3.68,0.33-4.78,1.8
		c-2.3,3.08-2.59,6.6-1.46,10.22c0.24,0.78,0.33,1.45,0.13,2.26c-1.09,4.4-2.03,8.83-3.16,13.21c-0.77,2.98-1.03,6.04-0.88,9.11
		c0.04,0.85,0.06,1.71,0.25,2.54c0.01,0.05,0.02,0.1,0.04,0.15c0.76,0.3,1.53,0.58,2.31,0.82c0.11-0.15,0.21-0.29,0.29-0.41
		C41.76,79.6,42.86,77.29,43.69,74.93z"/>
</g>
</svg>
