<?xml version="1.0" encoding="utf-8"?>
<svg version="1.1" id="Layer_1" xmlns="http://www.w3.org/2000/svg" xmlns:xlink="http://www.w3.org/1999/xlink" x="0px" y="0px"
	 viewBox="0 0 100 100" style="enable-background:new 0 0 100 100;" xml:space="preserve">
<path style="fill: #FFFFFF" d="M79.46,0H20.54C9.19,0,0,9.2,0,20.54v58.92C0,90.8,9.19,100,20.54,100h58.92C90.8,100,100,90.8,100,79.46V20.54
	C100,9.2,90.8,0,79.46,0z M86.88,69.8c-0.35,0.82-1.18,1.52-2.51,2.15c-1.63,0.75-4.07,1.39-7.24,1.89
	c-0.17,0.31-0.33,1.1-0.45,1.59c-0.12,0.57-0.24,1.13-0.42,1.73c-0.27,0.91-0.96,1.43-1.9,1.43h-0.04h-0.04
	c-0.43,0-0.98-0.07-1.71-0.21c-1.1-0.22-2.33-0.42-3.89-0.42c-0.9,0-1.84,0.08-2.78,0.24c-1.82,0.3-3.38,1.4-5.19,2.68v0
	c-0.5,0.41-1.08,0.76-1.62,1.11c-0.58,0.39-1.17,0.75-1.77,1.08c-1.32,0.72-2.73,1.27-4.2,1.56c-0.94,0.18-1.91,0.23-2.88,0.25
	c-0.88,0.01-1.75-0.01-2.63-0.13c-1.51-0.22-2.97-0.7-4.34-1.38c-1.22-0.61-2.37-1.38-3.48-2.16c-0.15-0.11-0.31-0.22-0.46-0.32
	c-1.81-1.28-3.38-2.39-5.19-2.69c-0.94-0.16-1.88-0.24-2.78-0.24c-1.63,0-2.93,0.26-3.89,0.44c-0.65,0.12-1.21,0.24-1.7,0.24
	c-1.29,0-1.8-0.79-1.99-1.46c-0.18-0.61-0.31-1.18-0.42-1.74c-0.12-0.52-0.28-1.29-0.44-1.6c-3.18-0.5-5.62-1.14-7.25-1.89
	c-1.34-0.62-2.16-1.32-2.51-2.15c-0.11-0.25-0.17-0.51-0.18-0.76c-0.06-1.03,0.69-1.62,1.59-1.87c1.11-0.31,2.27-0.49,3.34-0.92
	c1.21-0.48,2.35-1.13,3.42-1.86c2.04-1.41,3.78-3.27,5.23-5.28c0.93-1.29,1.8-2.67,2.43-4.13c0.01-0.03,0.02-0.06,0.03-0.08
	c0.51-1.03,0.63-1.88,0.36-2.53c-0.55-1.27-2.62-1.93-4-2.37c-0.39-0.12-0.76-0.24-1.08-0.37c-1.2-0.48-2.13-1.01-2.76-1.58
	c-1.15-1.05-1.15-2.08-1.06-2.61c0.16-0.8,0.71-1.51,1.57-2.02c0.62-0.36,1.38-0.62,2.11-0.61c0.76,0.02,1.45,0.31,2.15,0.58
	c0.8,0.31,1.66,0.55,2.53,0.55c0.58,0,0.97-0.12,1.22-0.23c-0.03-0.55-0.07-1.11-0.1-1.65l-0.01-0.01c-0.31-5.03-0.7-11.29,0.95-15
	c1.13-2.53,2.65-4.72,4.52-6.49c1.56-1.48,3.38-2.7,5.4-3.58c1.16-0.51,2.37-0.92,3.6-1.21c1.85-0.44,3.8-0.65,5.69-0.65
	c0.86,0,1.75,0.07,2.6,0.15c2.24,0.22,4.46,0.78,6.52,1.69c2.03,0.89,3.85,2.1,5.42,3.58c1.87,1.77,3.4,3.97,4.54,6.51
	c1.66,3.72,1.26,9.98,0.95,15.01l-0.02,0.22c-0.03,0.5-0.06,0.97-0.09,1.43c0.22,0.1,0.55,0.2,1.02,0.22
	c0.82-0.04,1.62-0.27,2.38-0.57c0.75-0.3,1.76-0.59,2.58-0.57c1.69,0.05,3.59,1.1,3.63,3.02c0.01,0.49-0.13,1.24-0.9,2.03
	c-0.64,0.66-1.61,1.24-2.96,1.77c-0.31,0.12-0.68,0.24-1.08,0.37c-1.38,0.44-3.45,1.1-3.99,2.37c-0.28,0.65-0.16,1.49,0.35,2.53
	c0.01,0.02,0.02,0.05,0.04,0.08c0.18,0.43,4.65,10.61,14.56,12.25c0.87,0.14,1.5,0.92,1.45,1.81C87.05,69.29,86.98,69.55,86.88,69.8
	z"/>
<g>
</svg>
