<?xml version="1.0" encoding="utf-8"?>
<svg version="1.1" id="Layer_1" xmlns="http://www.w3.org/2000/svg" xmlns:xlink="http://www.w3.org/1999/xlink" x="0px" y="0px"
	 viewBox="0 0 100 100" style="enable-background:new 0 0 100 100;" xml:space="preserve">
<path style="fill: #FFFFFF" d="M79.45,0H20.55C9.2,0,0,9.2,0,20.55v58.92C0,90.8,9.2,100,20.55,100h58.91C90.8,100,100,90.8,100,79.46V20.55
	C100,9.2,90.8,0,79.45,0z M78.75,30.59c-0.26,5.18-2.4,19.16-6.29,41.2c-0.99,5.56-1.87,7.78-3.39,8.72
	c-0.53,0.35-1.32,0.61-1.7,0.61c-1.61,0-4.18-1.26-8.46-4.18c-2.49-1.67-7.2-4.86-10.47-7.05c-5.91-3.98-7.34-5.24-7.34-6.5
	c0-1.78,0.76-2.63,12.14-13.31c7.87-7.4,9.51-9.1,9.51-9.86c0-0.82-0.73-1.32-1.58-1.11c-0.38,0.09-6.76,4.21-14.13,9.13
	c-7.37,4.92-14.04,9.28-14.86,9.71c-3.01,1.52-6,1.23-14.4-1.4c-5.06-1.61-5.94-2.17-5.94-3.72c0-1.2,1.76-2.19,11.44-6.41
	C48.2,35.56,65.12,28.54,72.84,25.88c0.5-0.18,1.7-0.32,2.72-0.32c1.61-0.03,1.93,0.06,2.6,0.73
	C78.93,27.05,78.93,27.05,78.75,30.59z"/>
<g>
</svg>
